<?xml version="1.0" encoding="UTF-8"?>
<svg xmlns="http://www.w3.org/2000/svg" width="1040" height="1024" viewBox="0 0 1040 1024" style="background: transparent;">
  
  <path id="3" d="M 1011.658,462.946 C 1012.501,463.726 1011.147,526.612 1010.053,537.500 C 1008.829,549.684 1006.197,569.491 1005.071,575 C 1004.565,577.475 1003.607,582.425 1002.942,586 C 995.070,628.327 980.031,668.173 961.656,695.379 C 946.426,717.930 935.342,729.846 916.318,744.124 C 894.427,760.553 871.605,769.606 837,775.590 C 824.343,777.779 821.865,778.529 817.500,781.499 C 814.750,783.370 809.143,787.196 805.040,790 C 789.193,800.831 775.857,805.617 758.722,806.623 C 750.212,807.123 747.132,806.870 740.333,805.112 C 732.791,803.162 728,802.481 728,803.360 C 728,803.558 730.886,809.746 734.414,817.110 C 747.701,844.848 749.019,857.592 740.217,873.194 C 738.571,876.112 735.377,883.974 733.119,890.666 C 730.861,897.357 726.382,908.382 723.166,915.166 C 717.630,926.843 717.281,928.031 716.623,937.473 C 715.817,949.037 711.113,975.548 708.029,985.904 C 704.493,997.776 697.962,1003.499 691.466,1000.417 C 685.523,997.597 680.298,988.759 672.351,968.084 C 669.902,961.713 667.504,955.600 667.021,954.500 C 666.055,952.300 664.169,945.980 661.500,936 C 660.544,932.425 658.955,926.800 657.969,923.500 C 655.769,916.137 655.700,915.835 651.033,893 C 648.953,882.825 646.320,872.475 645.181,870 C 638.295,855.039 634.333,845.165 631.137,835 C 627.614,823.793 627.520,823.084 627.474,807.163 C 627.458,801.717 627.443,796.272 627.427,790.826 C 625.939,790.044 624.452,789.262 622.964,788.480 C 616.463,785.063 603.467,779 602.644,779 C 600.774,779 575.221,765.495 567.848,760.610 C 548.750,747.956 533.320,731.683 526.024,716.500 C 519.725,703.392 518.563,692.754 521.557,675.637 C 522.410,670.762 522.920,666.586 522.691,666.357 C 522.462,666.128 517.600,668.160 511.887,670.872 C 493.931,679.396 475.082,686.725 455.969,692.614 C 416.939,704.640 406.081,706.459 373.500,706.430 C 349.409,706.409 342.330,705.700 323.027,701.375 C 294.135,694.902 264.789,681.812 238.827,663.818 C 220.117,650.850 190.364,622.279 172.939,600.547 C 160.284,584.764 138.029,550.153 132.942,538.344 C 131.239,534.392 130.353,533.788 114.826,525.983 C 88.848,512.926 80.363,507.526 64.141,493.729 C 37.526,471.092 23.045,443.021 23.012,414 C 22.999,402.099 24.401,394.454 28.974,381.500 C 36.127,361.238 47.505,342.725 60.915,329.527 C 64.812,325.692 68,321.781 68,320.836 C 68,316.969 76.260,287.701 80.445,276.738 C 92.948,243.988 115.067,209.438 139.500,184.494 C 177.155,146.052 227.944,118.663 283,107.109 C 320.999,99.134 353.584,95.783 391.699,95.930 C 400.765,95.965 409.832,96 418.898,96.035 C 421.766,93.847 424.634,91.658 427.502,89.470 C 446.020,75.341 467.540,61.806 485.500,52.994 C 495.400,48.136 505.300,43.413 507.500,42.498 C 540.368,28.823 579.663,23.756 612.678,28.936 C 667.158,37.483 708.746,66.323 752.804,126.107 C 755.901,130.309 758.998,134.513 762.095,138.715 C 764.663,138.928 767.229,139.141 769.797,139.354 C 774.034,139.706 779.750,140.440 782.500,140.986 C 785.250,141.532 792.675,142.915 799,144.057 C 809.705,145.990 817.070,147.796 836,153.127 C 855.162,158.524 884.018,171.354 904,183.361 C 908.675,186.170 917.675,192.366 924,197.129 C 982.655,241.299 1012.711,310.857 1009.502,395 C 1009.072,406.275 1008.710,417.075 1008.697,419 C 1008.649,426.259 1011.085,462.416 1011.658,462.946 ZM 28.990,401.500 C 27.660,410.816 28.836,429.488 31.194,436.499 C 33.889,444.510 42.193,461.295 46.532,467.500 C 52.052,475.394 66.491,489.347 78.753,498.638 C 84.942,503.327 90.456,507.014 91.006,506.831 C 91.556,506.648 89.504,503.172 86.446,499.107 C 79.467,489.829 75.857,482.701 71.288,469.171 C 67.957,459.308 67.634,457.288 67.009,442.500 C 66.360,427.145 66.167,426.029 62.220,414.827 C 56.442,398.430 52.849,380.853 52.750,368.500 C 52.684,360.250 53.129,357.107 55.294,350.543 C 56.738,346.167 57.723,342.389 57.484,342.150 C 56.643,341.309 53.834,344.406 51.783,348.433 C 50.644,350.670 48.692,353.850 47.446,355.500 C 40.860,364.222 30.695,389.557 28.990,401.500 ZM 57.974,356.500 C 56.112,365.110 58.185,384.366 62.975,402.971 C 65.531,412.899 66.084,414.034 67.102,411.434 C 68.916,406.802 67.590,335.637 65.702,336.266 C 64.574,336.642 59.258,350.560 57.974,356.500 ZM 73.131,333.792 C 72.784,334.355 72.533,356.120 72.573,382.158 C 72.597,397.939 72.621,413.719 72.645,429.500 C 76.925,436.667 81.205,443.833 85.485,451 C 92.547,462.825 100.665,476.325 103.524,481 C 106.383,485.675 111.793,494.675 115.546,501 C 126.232,519.010 130.903,526.026 132.658,526.699 C 133.550,527.041 141.979,524.801 151.390,521.721 C 160.801,518.641 180.650,512.231 195.500,507.478 C 210.350,502.725 231.950,495.757 243.500,491.995 C 255.050,488.233 270.688,483.243 278.250,480.908 C 286.211,478.450 292,476.142 292,475.426 C 292,474.746 289.862,472.944 287.250,471.422 C 284.638,469.900 277.325,465.190 271,460.955 C 260.027,453.608 250.529,447.387 218,426.239 C 210.025,421.054 200.575,414.887 197,412.534 C 179.250,400.852 122.341,363.771 99.696,349.131 C 78.784,335.612 73.787,332.727 73.131,333.792 ZM 72.775,440 C 71.249,440 72.038,453.829 74.007,461.590 C 76.072,469.730 81.406,483.119 85.225,489.745 C 88.086,494.710 94.913,503.624 99.254,508.066 C 104.495,513.429 121.234,524.099 122.468,522.865 C 122.799,522.534 120.742,518.491 117.896,513.881 C 115.050,509.271 110.614,501.900 108.040,497.500 C 101.403,486.156 85.222,459.083 78.902,448.750 C 75.958,443.938 73.201,440 72.775,440 ZM 77.390,327.091 C 76.625,327.726 76,328.368 76,328.518 C 76,328.668 78.363,330.263 81.250,332.061 C 84.137,333.859 93.475,339.901 102,345.485 C 123.569,359.614 140.305,370.531 178.500,395.389 C 247.233,440.121 260.557,448.812 277.196,459.763 C 286.608,465.957 294.553,470.780 294.852,470.481 C 295.151,470.182 294.854,466.914 294.193,463.219 C 291.990,450.909 285.926,415.752 282.425,395 C 280.523,383.725 278.766,373.825 278.520,373 C 278.122,371.667 275.298,355.378 267.511,309.500 C 263.553,286.180 258.944,259.636 258.439,257.250 C 257.854,254.490 256.893,254.460 250.519,257.002 C 247.758,258.103 230.200,265.132 211.500,272.623 C 192.800,280.114 172.100,288.376 165.500,290.983 C 158.900,293.590 139.325,301.468 122,308.489 C 104.675,315.510 87.863,322.308 84.640,323.596 C 81.417,324.884 78.155,326.456 77.390,327.091 ZM 87.310,308.395 C 79.636,316.926 77.686,320 79.952,320 C 81.056,320 131.620,299.933 163,287.042 C 174.825,282.184 200.588,271.818 220.252,264.006 C 239.916,256.194 256.257,249.393 256.566,248.893 C 256.875,248.393 256.446,244.500 255.613,240.242 C 254.780,235.984 252.476,223.050 250.493,211.500 C 245.906,184.785 243.064,169.731 242.503,169.170 C 241.793,168.460 237.043,171.881 228.954,178.927 C 224.804,182.542 213.159,192.250 203.076,200.500 C 192.993,208.750 180.639,218.886 175.622,223.025 C 170.605,227.164 164.475,232.106 162,234.008 C 151.087,242.394 134.969,256.354 128.931,262.650 C 123.053,268.779 113.598,279.172 87.310,308.395 ZM 84.247,299 C 78.786,309.247 78.802,311.996 84.285,305.525 C 86.603,302.789 93.421,295.139 99.436,288.525 C 105.451,281.911 112.409,274.250 114.898,271.500 C 127.008,258.120 141.853,244.610 164.950,225.948 C 178.869,214.702 191.724,204.375 193.518,203 C 195.312,201.625 201.892,196.210 208.140,190.966 C 214.388,185.722 221.975,179.463 225,177.056 C 231.569,171.829 234.162,169.070 233.505,168.007 C 232.851,166.948 214.829,171.882 202.500,176.495 C 190.152,181.115 190.844,180.753 177.500,189.559 C 140.290,214.114 111.448,247.962 84.247,299 ZM 82.657,286 C 81.862,288.389 81.930,291 82.788,291 C 83.221,291 86.520,285.712 90.118,279.250 C 96.964,266.955 110.484,247.071 119.527,236 C 125.107,229.168 142.820,211.422 154.245,201.217 C 168.326,188.640 192.134,174.287 207.933,168.851 C 213.959,166.778 237.795,161 240.322,161 C 241.182,161 245.543,156.837 250.012,151.750 C 264.279,135.508 277.953,123.697 291.250,116.127 C 294.413,114.327 297,112.437 297,111.927 C 297,110.735 293.493,110.741 289.571,111.938 C 287.882,112.454 283.350,113.586 279.500,114.455 C 245.317,122.167 213.278,135.561 185.461,153.771 C 151.080,176.278 123.958,205.390 101.864,243.500 C 96.383,252.955 86.033,275.856 82.657,286 ZM 141.022,530.141 C 138.721,531.092 138.675,531.239 140.382,532.194 C 141.393,532.760 145.433,534.255 149.360,535.517 C 158.069,538.315 169.456,542.504 195,552.309 C 248.289,572.764 244.227,571.588 246.594,567.250 C 247.419,565.737 253.199,555.500 259.438,544.500 C 283.032,502.901 293.831,482.508 292.438,482.184 C 291.691,482.010 284.426,483.961 276.291,486.517 C 235.340,499.385 144.745,528.602 141.022,530.141 ZM 140.250,537.006 C 139.562,537.002 139,537.268 139,537.596 C 139,538.593 143.045,544.099 149.686,552.144 C 164.910,570.586 206.410,601.373 244.500,622.482 C 261.428,631.863 293.970,648.363 294.499,647.834 C 295.385,646.948 246.439,577.698 243.573,575.783 C 242.983,575.389 235.300,572.378 226.500,569.092 C 217.700,565.806 204.425,560.794 197,557.954 C 160.489,543.987 141.597,537.013 140.250,537.006 ZM 157.643,568 C 156.272,568 157.158,569.866 161.250,575.594 C 163.587,578.866 167.075,583.754 169,586.457 C 182.944,606.037 216.060,640.176 234.721,654.207 C 254.234,668.879 275.841,680.582 297.500,688.211 C 320.578,696.340 337.299,699.682 364.587,701.618 C 379.811,702.698 423.500,698.156 423.500,695.493 C 423.500,694.928 418.329,694.214 411.500,693.837 C 397.675,693.073 390.891,691.958 369.044,686.854 C 353.053,683.118 324.778,670.913 308.500,660.719 C 304.650,658.308 298.179,654.816 294.119,652.959 C 267.894,640.964 225.268,617.293 204.500,603.193 C 189.660,593.117 189.221,592.790 170.393,577.702 C 163.734,572.366 157.997,568 157.643,568 ZM 249.799,171 C 248.490,171 248.852,174.617 252.002,193 C 253.651,202.625 256.344,218.345 257.986,227.935 C 259.628,237.525 261.360,245.760 261.836,246.236 C 263.196,247.596 307.500,229.781 307.500,227.873 C 307.500,226.333 251.361,171 249.799,171 ZM 261.147,550 C 254.511,561.825 249.064,572.243 249.041,573.151 C 249.018,574.059 250.942,577.434 253.316,580.651 C 259.719,589.327 297.966,642.905 300.859,647.250 C 302.232,649.312 303.845,651 304.443,651 C 305.041,651 325.062,631.451 348.932,607.557 C 363.399,593.076 377.865,578.595 392.332,564.114 C 390.671,562.512 389.010,560.909 387.349,559.307 C 381.827,553.980 359.404,533.442 340.612,516.500 C 310.198,489.079 300.823,480.991 300.029,481.482 C 299.559,481.772 297.286,485.495 294.977,489.755 C 292.668,494.015 286.825,504.475 281.995,513 C 277.165,521.525 267.783,538.175 261.147,550 ZM 253.332,160.696 C 251.499,162.094 250,163.493 250,163.805 C 250,164.117 260.462,174.518 273.250,186.917 C 310.281,222.824 312.586,225.001 313.568,224.993 C 314.434,224.986 317.948,220.922 327.829,208.500 C 330.016,205.750 336.462,197.790 342.153,190.810 C 347.844,183.830 357.732,171.680 364.126,163.810 C 370.520,155.940 379.232,145.225 383.486,140 C 418.015,97.586 414.601,102.493 408.983,103.340 C 406.517,103.712 400.900,104.708 396.500,105.553 C 392.100,106.398 385.800,107.502 382.500,108.007 C 379.200,108.512 373.800,109.412 370.500,110.008 C 367.200,110.604 362.250,111.467 359.500,111.924 C 354.815,112.703 348.628,113.863 338,115.952 C 335.525,116.439 330.800,117.361 327.500,118.002 C 323.309,118.816 319.044,120.726 313.356,124.334 C 293.884,136.685 278.620,145.832 260.582,155.956 C 258.427,157.166 255.165,159.298 253.332,160.696 ZM 265.704,141.303 C 260.316,146.759 256.041,151.612 256.204,152.087 C 256.554,153.109 273.021,143.870 299.899,127.572 C 320.333,115.181 325.773,113.034 344.173,110.093 C 347.653,109.537 354.775,108.379 360,107.519 C 365.225,106.659 371.284,105.709 373.464,105.408 C 375.644,105.107 378.119,104.472 378.964,103.997 C 381.593,102.520 377.845,101.763 370.801,102.347 C 357.910,103.416 337.339,105.881 332.500,106.938 C 329.750,107.538 324.800,108.468 321.500,109.005 C 312.648,110.444 307.344,112.288 298.463,117.011 C 285.178,124.076 275.983,130.895 265.704,141.303 ZM 265.571,251.150 C 264.157,251.794 263,252.871 263,253.544 C 263,255.579 282.433,369.006 289.377,407.500 C 296.571,447.381 300.019,465.500 300.414,465.500 C 300.636,465.500 302.817,459.875 305.262,453 C 307.707,446.125 310.865,437.575 312.280,434 C 315.552,425.730 323.009,405.108 328.552,389 C 334.084,372.923 343,348.259 351.508,325.500 C 355.209,315.600 358.423,305.925 358.651,304 C 359.092,300.270 359.319,300.630 329.351,257.235 C 323.933,249.389 318.374,241.113 316.997,238.842 C 315.620,236.571 313.812,234.284 312.979,233.759 C 311.884,233.068 305.478,235.177 289.803,241.391 C 277.889,246.114 266.985,250.506 265.571,251.150 ZM 305.195,466.500 C 303.132,472.467 304.210,472.847 312.728,469.158 C 326.340,463.262 368.634,447 370.356,447 C 371.050,447 372.437,446.401 373.438,445.669 C 375.190,444.388 375.196,443.607 373.594,424.919 C 372.679,414.239 371.268,400.100 370.460,393.500 C 367.762,371.475 364.035,337.629 363.039,326.110 C 362.095,315.200 361.631,313.036 360.477,314.190 C 360.189,314.478 358.138,319.841 355.919,326.107 C 353.700,332.373 348.997,345.375 345.467,355 C 341.937,364.625 333.827,387.125 327.444,405 C 321.061,422.875 313.678,443.350 311.036,450.500 C 308.394,457.650 305.765,464.850 305.195,466.500 ZM 315.699,472.961 C 309.395,475.430 305.054,477.672 305.274,478.346 C 305.481,478.981 308.574,481.975 312.146,485 C 315.718,488.025 327.415,498.600 338.139,508.500 C 374.369,541.947 389.835,556 390.419,556 C 391.340,556 391.095,550.815 389.993,546.993 C 388.895,543.184 386.042,524.774 383.021,502 C 381.963,494.025 380.177,481.200 379.051,473.500 C 377.925,465.800 377.003,458.092 377.002,456.372 C 376.998,450.797 375.036,450.349 365.741,453.798 C 355.355,457.652 329.834,467.425 315.699,472.961 ZM 351.543,611.029 C 328.694,633.768 310,652.712 310,653.127 C 310,654.421 311.641,655.030 325.768,658.980 C 333.320,661.092 348.050,665.377 358.500,668.502 C 396.164,679.766 417.513,685.794 418.217,685.362 C 419.148,684.791 419.394,686.118 406.923,624.500 C 402.669,603.481 395.117,571.717 394.142,570.742 C 393.401,570.001 380.697,582.015 351.543,611.029 ZM 324.036,220 C 318.804,226.781 318.386,228.284 321.583,228.824 C 323.978,229.229 346.175,234.763 382.368,243.979 C 408.209,250.559 410.404,250.965 412.551,249.558 C 413.825,248.723 422.659,240.496 432.183,231.273 C 441.707,222.050 454.900,209.328 461.500,203.002 C 514.323,152.371 564.500,102.542 564.500,100.715 C 564.500,100.062 563.600,99.389 562.500,99.221 C 561.400,99.053 556.450,97.850 551.500,96.549 C 546.550,95.248 535.525,92.551 527,90.556 C 518.475,88.561 508.612,86.246 505.082,85.411 C 493.020,82.559 487.425,82.565 476.500,85.445 C 460.954,89.543 437.819,95.965 434.500,97.104 C 432.850,97.670 429.330,98.721 426.678,99.439 C 424.026,100.157 421.489,101.139 421.041,101.622 C 416.202,106.840 391.794,136.366 372.776,160.008 C 359.728,176.228 344.551,194.900 339.051,201.500 C 333.551,208.100 326.794,216.425 324.036,220 ZM 321.649,234 C 320.742,234 320,234.377 320,234.837 C 320,235.297 325.829,244.185 332.953,254.587 C 340.077,264.989 349.267,278.479 353.376,284.564 C 357.485,290.649 361.551,296.212 362.411,296.926 C 363.763,298.048 366.857,295.369 385.221,277.179 C 396.907,265.604 406.150,255.817 405.761,255.428 C 404.898,254.565 403.344,254.151 358.899,242.962 C 339.318,238.033 322.556,234 321.649,234 ZM 325.032,663 C 316.222,663 357.352,680.914 373,683.892 C 376.025,684.468 382.931,685.852 388.347,686.969 C 398.376,689.037 408.174,689.683 406.450,688.162 C 404.934,686.825 392.802,682.884 370.500,676.487 C 363.900,674.594 355.800,672.117 352.500,670.984 C 349.200,669.851 343.394,668.214 339.597,667.347 C 335.800,666.480 331.202,665.147 329.379,664.385 C 327.556,663.623 325.600,663 325.032,663 ZM 371.250,306.023 C 367.698,306.007 366.004,306.404 366.012,307.250 C 366.038,310.029 369.005,338.999 369.981,346 C 371.036,353.568 373.205,374.242 375.069,394.500 C 375.626,400.550 376.543,409.100 377.107,413.500 C 377.671,417.900 378.383,425.697 378.689,430.828 C 379.315,441.328 379.936,442.124 385.876,440.038 C 387.869,439.338 408.175,431.338 431,422.261 C 453.825,413.184 474.750,404.942 477.500,403.945 C 480.250,402.948 491.950,398.246 503.500,393.495 C 515.050,388.744 527.425,383.807 531,382.523 C 534.575,381.239 540.461,378.849 544.080,377.212 C 547.699,375.575 553.641,373.229 557.283,371.999 C 567.611,368.510 567.431,368.971 565.904,349.960 C 564.718,335.193 564.429,333.736 562.553,333.048 C 560.358,332.243 545.378,330.024 508.500,325.037 C 495.850,323.326 481.675,321.272 477,320.471 C 469.522,319.190 457.889,317.559 431,314.025 C 419.204,312.474 403.634,310.233 389.500,308.052 C 382.350,306.948 374.138,306.036 371.250,306.023 ZM 390.668,277.531 C 379.210,288.792 370.020,298.560 370.246,299.237 C 370.705,300.615 394.265,304.423 427.500,308.493 C 434.650,309.369 442.525,310.516 445,311.044 C 447.475,311.572 456.700,312.915 465.500,314.029 C 474.300,315.143 483.975,316.476 487,316.992 C 490.025,317.507 497.900,318.638 504.500,319.505 C 511.100,320.372 521,321.735 526.500,322.534 C 545.270,325.262 558.861,327 561.432,327 C 562.288,327 563.144,327 564,327 C 563.989,323.917 563.978,320.833 563.967,317.750 C 563.934,308.396 562.629,295.296 561.631,294.298 C 561.115,293.782 548.754,290.578 495,277.027 C 437.402,262.507 414.899,257.002 413.261,257.028 C 412.292,257.043 402.126,266.270 390.668,277.531 ZM 382.420,451.392 C 381.295,451.824 381.005,452.790 381.409,454.749 C 382.025,457.735 384.552,476.678 386.045,489.500 C 386.557,493.900 387.640,501.775 388.452,507 C 389.264,512.225 390.615,521.158 391.454,526.851 C 392.293,532.544 393.938,542.344 395.109,548.630 C 397.116,559.400 397.361,560.022 399.369,559.431 C 400.541,559.086 408.250,555.164 416.500,550.716 C 424.750,546.268 434.425,541.080 438,539.188 C 441.575,537.296 447.875,533.843 452,531.513 C 458.586,527.794 486.140,512.815 503.500,503.518 C 506.800,501.751 518.275,495.581 529,489.807 C 539.725,484.033 552.213,477.389 556.750,475.043 C 561.287,472.697 565,470.378 565,469.889 C 565,469.400 563.399,469 561.443,469 C 559.487,469 555.999,468.554 553.693,468.009 C 551.387,467.464 541.400,466.299 531.500,465.419 C 521.600,464.539 509,463.398 503.500,462.882 C 493.296,461.925 479.360,460.672 461.500,459.107 C 456,458.625 450.375,457.946 449,457.598 C 447.625,457.250 440.875,456.532 434,456.001 C 404.982,453.761 387.389,452.108 385.750,451.469 C 384.788,451.093 383.289,451.059 382.420,451.392 ZM 386.667,444.667 C 384.567,446.767 386.689,447.416 399,448.437 C 420.249,450.199 472.996,455.108 523,459.976 C 554.889,463.080 571.986,464.347 572.675,463.658 C 573.022,463.311 572.731,455.484 572.027,446.264 C 570.796,430.135 569.816,414.482 568.503,390 C 567.790,376.710 567.355,374 565.931,374 C 564.949,374 526.273,389.217 498.500,400.530 C 491.350,403.443 466.600,413.311 443.500,422.460 C 420.400,431.609 398.969,440.198 395.875,441.547 C 392.781,442.896 389.594,444 388.792,444 C 387.990,444 387.034,444.300 386.667,444.667 ZM 401.156,571 C 399.618,571 399.569,570.610 403.031,586.015 C 406.379,600.912 417.751,654.769 421.478,673.379 C 422.787,679.912 424.296,685.696 424.832,686.232 C 425.885,687.285 425.621,687.354 451.500,679.220 C 460.300,676.454 478.525,670.973 492,667.038 C 518.451,659.315 521.028,658.445 520.948,657.271 C 520.919,656.847 517.271,653.865 512.842,650.646 C 497.507,639.499 468.434,618.608 453.500,608.003 C 445.250,602.145 433.325,593.591 427,588.996 C 420.675,584.401 414.148,579.710 412.496,578.571 C 410.844,577.432 407.877,575.263 405.902,573.750 C 403.927,572.237 401.792,571 401.156,571 ZM 402.656,563.870 C 400.943,565.365 400.932,565.551 402.500,566.490 C 404.393,567.623 428.963,585.041 460.500,607.608 C 472.050,615.873 486.450,626.165 492.500,630.480 C 498.550,634.795 508.396,641.884 514.379,646.234 C 520.362,650.584 525.613,653.773 526.049,653.321 C 526.485,652.869 527.727,648.900 528.808,644.500 C 529.889,640.100 534.243,623 538.483,606.500 C 542.723,590 546.987,573.125 547.958,569 C 548.929,564.875 551.837,553.400 554.420,543.500 C 557.003,533.600 561.141,517.400 563.616,507.500 C 566.091,497.600 569.006,486.221 570.094,482.213 C 571.182,478.205 571.815,474.509 571.501,474.001 C 570.660,472.641 568.467,473.656 544.340,486.582 C 532.328,493.017 515.300,502.094 506.500,506.752 C 497.700,511.410 490.050,515.572 489.500,516.002 C 488.950,516.432 482.650,519.915 475.500,523.742 C 461.333,531.325 454.497,535.033 440,543.003 C 434.775,545.876 424.650,551.384 417.500,555.244 C 410.350,559.104 403.670,562.985 402.656,563.870 ZM 452.654,217.411 C 431.007,238.546 418.275,251.675 418.860,252.260 C 419.376,252.776 425.131,254.512 431.649,256.118 C 438.167,257.724 448.450,260.353 454.500,261.962 C 489.584,271.291 559.802,288.290 561.136,287.778 C 562.914,287.096 562.778,289.499 566.024,200.500 C 568.457,133.788 568.627,105.545 566.588,106.700 C 565.475,107.330 528.811,142.858 491.973,179 C 489.450,181.475 471.757,198.760 452.654,217.411 ZM 439.138,687.616 C 432.660,692.153 443.638,691.105 461.951,685.438 C 472.310,682.232 496.030,673.220 497.652,671.874 C 499.610,670.249 498.273,668.936 495.714,669.970 C 494.496,670.462 488.100,672.473 481.500,674.439 C 459.861,680.884 452.554,683.146 448.730,684.583 C 446.656,685.362 444.168,686 443.202,686 C 442.236,686 440.407,686.727 439.138,687.616 ZM 440.094,88.382 C 436.442,91.286 445.527,89.432 468.500,82.585 C 483.736,78.044 490.085,77.663 503.740,80.466 C 515.779,82.937 532.772,86.848 543.554,89.629 C 546.884,90.488 550.709,91.018 552.054,90.807 C 553.987,90.504 552.119,89.212 543.165,84.660 C 525.350,75.603 511.845,73.582 481.500,75.427 C 465.112,76.424 448.663,81.570 440.094,88.382 ZM 465.250,70.266 C 464.046,71.209 463.523,73 464.451,73 C 464.699,73 467.061,72.562 469.701,72.026 C 481.005,69.731 500.358,69.016 511.588,70.480 C 530.473,72.941 540.113,76.577 560.500,88.929 C 566,92.261 571.531,94.991 572.790,94.994 C 574.049,94.997 576.749,94.149 578.790,93.109 C 584.862,90.014 604.079,81.915 610.094,79.915 C 624.411,75.155 632.906,73.885 650,73.954 C 673.596,74.049 688.243,75.516 695,78.462 C 698.025,79.781 701.850,81.144 703.500,81.490 C 706.202,82.057 705.805,81.467 699.500,75.539 C 683.433,60.434 657.803,46.417 633.504,39.447 C 616.166,34.473 611.995,33.871 591,33.316 C 561.501,32.536 545.098,35.128 520,44.533 C 500.731,51.754 471.118,65.672 465.250,70.266 ZM 525.560,685.742 C 525.125,686.159 525.004,690.906 525.292,696.290 C 525.746,704.775 526.275,707.040 529.262,713.290 C 535.946,727.275 550.992,744.252 565.158,753.792 C 574.061,759.787 589.058,768.148 590.218,767.761 C 590.824,767.559 587.310,764.302 582.410,760.523 C 550.420,735.856 533.844,714.992 528.163,692.242 C 527.166,688.250 525.995,685.325 525.560,685.742 ZM 530.904,668.560 C 530.380,668.884 530.173,671.252 530.444,673.824 C 530.715,676.396 531.188,681.213 531.494,684.529 C 532.168,691.841 536.005,703.544 540.173,711 C 544.630,718.972 555.777,732.446 564.498,740.403 C 579.984,754.532 617.085,780.613 620.536,779.796 C 621.770,779.504 619.346,775.982 603.121,754.500 C 595.139,743.932 586.935,733.676 567.521,710 C 556.619,696.704 552.954,692.371 537.178,674.126 C 534.251,670.741 531.428,668.236 530.904,668.560 ZM 532.101,649.500 C 530.907,653.358 530.820,654.782 531.750,655.298 C 532.580,655.759 550.719,653.538 553.650,652.617 C 554.668,652.297 560.225,651.594 566,651.054 C 571.775,650.514 579.650,649.586 583.500,648.992 C 593.544,647.442 645.476,640.845 652,640.291 C 655.025,640.034 657.925,639.416 658.445,638.917 C 659.595,637.813 578.977,475.895 577.500,476.341 C 576.367,476.683 575.244,480.213 571.725,494.500 C 570.370,500 567.211,512.375 564.704,522 C 562.197,531.625 554.045,563.575 546.588,593 C 539.131,622.425 532.612,647.850 532.101,649.500 ZM 534.901,660.561 C 533.287,661.558 533.922,662.803 539.250,669.099 C 545.237,676.173 552.038,684.436 566.914,702.709 C 572.642,709.744 582.138,721.350 588.018,728.500 C 602.147,745.681 627,778.006 627,779.201 C 627,779.721 627.764,780 628.697,779.820 C 629.957,779.577 630.841,777.308 632.137,770.997 C 633.096,766.324 635.485,755.525 637.444,747 C 640.615,733.201 642.400,725.146 649.963,690.500 C 651.044,685.550 653.519,674.494 655.464,665.932 C 659.149,649.708 659.711,645 657.961,645 C 654.515,645 621.469,648.873 607,650.973 C 603.425,651.492 595.775,652.415 590,653.025 C 580.487,654.029 562.796,656.283 543.151,658.991 C 539.109,659.548 535.397,660.255 534.901,660.561 ZM 568.033,267.500 C 567.648,277.400 567.259,285.962 567.167,286.527 C 566.738,289.167 571.970,293.304 594.858,308.425 C 624.832,328.227 638.120,336.288 639.111,335.269 C 639.769,334.593 643.702,315.570 650.124,282 C 651.229,276.225 652.554,269.613 653.067,267.307 C 653.580,265.001 654,260.901 654,258.196 C 654,252.943 654.592,254.197 638.818,226 C 631.315,212.588 617.338,187.017 605.476,165 C 602.068,158.675 594.858,145.400 589.454,135.500 C 584.050,125.600 578.699,115.588 577.564,113.251 C 576.429,110.914 575.207,109.001 574.849,109.001 C 573.988,109 573.238,124.082 571.991,166.500 C 571.425,185.750 570.460,212.300 569.847,225.500 C 569.234,238.700 568.418,257.600 568.033,267.500 ZM 567.559,297.774 C 567.177,298.156 567.097,299.825 567.381,301.484 C 567.665,303.143 568.204,309.578 568.579,315.785 C 569.148,325.192 569.561,327.230 571.061,328.033 C 572.623,328.869 589.548,331.665 613.638,335.067 C 617.564,335.621 622.270,336.504 624.097,337.028 C 631.440,339.134 628.276,335.900 613.759,326.464 C 605.367,321.009 593.004,312.843 586.287,308.318 C 572.373,298.944 568.545,296.788 567.559,297.774 ZM 571.790,334.005 C 570.225,334 570.130,335.298 570.667,349.250 C 570.990,357.638 571.620,364.900 572.066,365.389 C 572.529,365.896 574.945,365.303 577.689,364.010 C 580.335,362.763 586.550,360.184 591.500,358.281 C 601.734,354.346 611.103,350.674 615.500,348.874 C 617.150,348.199 620.750,346.923 623.500,346.038 C 626.250,345.153 628.500,344.018 628.500,343.517 C 628.500,342.620 613.579,339.919 587,336.001 C 579.575,334.907 572.731,334.008 571.790,334.005 ZM 573.120,371.324 C 572.038,372.215 571.891,374.301 572.437,380.980 C 572.820,385.666 573.517,396.025 573.987,404 C 576.248,442.383 577.479,457.007 578.420,456.693 C 579.476,456.341 581.313,452.890 602.728,411 C 614.397,388.175 629.326,359.211 633.641,351.025 C 634.661,349.089 634.679,348.404 633.723,347.879 C 632.502,347.209 575.734,369.171 573.120,371.324 ZM 577.181,99.515 C 575.404,100.155 576.329,102.817 581.519,112 C 587.612,122.781 598.254,142.389 606.485,158 C 610.400,165.425 615.657,175.100 618.167,179.500 C 622.701,187.447 632.596,205.449 647.434,232.750 C 651.694,240.587 655.580,247 656.070,247 C 656.560,247 657.184,245.988 657.455,244.750 C 657.726,243.512 663.184,216.400 669.584,184.500 C 675.984,152.600 683.146,117.050 685.497,105.500 C 689.182,87.403 689.573,84.340 688.326,83.345 C 687.530,82.710 683.643,81.899 679.689,81.543 C 675.735,81.187 667.550,80.187 661.500,79.320 C 657.833,78.795 654.167,78.269 650.500,77.744 C 645.667,79.276 640.833,80.808 636,82.340 C 628.025,84.867 617.450,88.032 612.500,89.373 C 602.790,92.004 579.335,98.739 577.181,99.515 ZM 585.375,455 C 583.039,459.675 581.098,464.232 581.063,465.127 C 581.023,466.151 582.829,467.541 585.935,468.877 C 588.649,470.045 591.122,471 591.429,471 C 591.736,471 613.438,479.550 639.657,490 C 665.876,500.450 687.959,509 688.731,509 C 689.655,509 689.929,508.350 689.532,507.101 C 689.201,506.057 688.106,502.344 687.100,498.851 C 686.094,495.358 682.109,482.375 678.245,470 C 668.188,437.793 660.209,411.937 652.018,385 C 642.469,353.599 640.954,348.998 640.168,349.008 C 639.800,349.013 638.451,350.925 637.168,353.258 C 634.941,357.308 594.263,437.215 585.375,455 ZM 583.559,473.339 C 582.679,473.677 594.713,498.686 621.730,552.666 C 643.431,596.025 661.570,631.903 662.038,632.395 C 662.522,632.904 663.121,632.257 663.427,630.895 C 663.723,629.578 668.732,609.375 674.558,586 C 680.384,562.625 686.268,539 687.634,533.500 C 689,528 690.365,521.676 690.667,519.446 C 690.850,518.095 691.033,516.743 691.216,515.392 C 689.097,514.499 686.977,513.606 684.858,512.713 C 681.361,511.240 673.775,508.256 668,506.081 C 662.225,503.906 652.550,500.045 646.500,497.500 C 640.450,494.955 625.081,488.890 612.347,484.023 C 599.613,479.156 588.215,474.650 587.019,474.010 C 585.823,473.370 584.266,473.068 583.559,473.339 ZM 632.095,815.198 C 631.221,814.907 630.971,815.381 631.338,816.632 C 631.639,817.660 632.188,820.750 632.556,823.500 C 633.433,830.047 638.095,844.328 639.020,843.301 C 639.417,842.861 639.162,840.025 638.454,837 C 634.149,818.594 633.273,815.591 632.095,815.198 ZM 633.715,785 C 633.164,788.295 633.581,789.927 637.542,800 C 644.170,816.854 648.498,837.003 652.577,870 C 653.201,875.050 656.165,885.960 658.961,893.500 C 667.625,916.867 673.982,932 675.135,932 C 676.221,932 676.159,920.704 674.997,907 C 674.507,901.225 673.636,886.150 673.060,873.500 C 671.829,846.483 669.402,800.365 667.982,777 C 667.430,767.925 666.523,751.500 665.965,740.500 C 665.407,729.500 664.514,713.525 663.979,705 C 663.444,696.475 662.999,684.775 662.990,679 C 662.960,660.498 661.278,659.214 658.079,675.250 C 655.871,686.320 653.092,698.782 648.433,718.500 C 647.134,724 644.734,735.025 643.100,743 C 641.466,750.975 638.780,763.125 637.131,770 C 635.482,776.875 633.945,783.625 633.715,785 ZM 646.825,335.874 C 645.904,337.170 645.369,338.798 645.635,339.492 C 646.145,340.821 655.973,345.631 680,356.309 C 687.975,359.853 699.781,365.250 706.237,368.301 C 712.693,371.352 718.216,373.459 718.511,372.982 C 718.806,372.505 714.681,364.101 709.344,354.307 C 704.007,344.513 698.429,334.250 696.950,331.500 C 679.958,299.906 675.140,291.788 673.669,292.272 C 673.026,292.484 667.100,301.851 660.500,313.088 C 653.900,324.325 647.746,334.578 646.825,335.874 ZM 645.892,346.567 C 645.383,346.881 645.279,347.642 645.659,348.257 C 646.039,348.872 646.918,351.653 647.612,354.437 C 648.982,359.932 656.272,384.772 660.984,400 C 662.601,405.225 665.990,416.250 668.516,424.500 C 671.042,432.750 675.743,447.825 678.964,458 C 682.185,468.175 687.125,483.812 689.942,492.750 C 692.759,501.688 695.442,509 695.904,509 C 696.366,509 710.414,495.577 727.122,479.171 C 743.830,462.765 761.888,445.128 767.250,439.977 C 772.612,434.826 777,430.082 777,429.436 C 777,428.790 771.263,423.148 764.250,416.900 C 757.237,410.652 745.987,400.437 739.248,394.200 C 727.385,383.220 726.505,382.624 711.534,375.469 C 703.030,371.405 689.812,365.390 682.161,362.104 C 674.510,358.818 663.427,353.849 657.533,351.062 C 651.639,348.275 646.401,346.253 645.892,346.567 ZM 650.506,304.500 C 645.802,327.056 645.981,329.402 651.673,319.750 C 653.376,316.862 657.710,309.550 661.304,303.500 C 664.898,297.450 668.600,290.883 669.530,288.907 C 670.094,287.709 670.657,286.512 671.221,285.314 C 669.323,281.845 667.424,278.376 665.526,274.907 C 662.394,269.183 659.648,264.500 659.425,264.500 C 659.011,264.500 656.480,275.852 650.506,304.500 ZM 662.577,242 C 661.256,248.325 660.150,253.950 660.121,254.500 C 660.033,256.141 672.505,278.335 673.747,278.749 C 674.876,279.125 677.473,275.462 686.111,261.307 C 697.616,242.454 715.911,211.936 726.644,193.694 C 732.590,183.588 738.608,173.753 751.622,152.869 C 754.580,148.122 757,143.508 757,142.616 C 757,140.558 746.627,130.765 727.500,114.766 C 719.250,107.865 708.675,98.809 704,94.639 C 699.325,90.470 694.938,87.045 694.250,87.029 C 693.547,87.013 692.999,88.202 692.998,89.750 C 692.997,91.262 690.734,103.300 687.969,116.500 C 682.952,140.452 673.902,185.674 669.959,206.500 C 668.813,212.550 667.225,220.425 666.428,224 C 665.631,227.575 663.898,235.675 662.577,242 ZM 666.363,924.886 C 664.887,923.661 664.782,923.872 665.288,927.014 C 666.075,931.896 670.548,944.423 673.171,949.090 C 675.533,953.293 681.656,957 686.238,957 C 689.666,957 696.367,951.798 702.089,944.695 C 709.726,935.216 711.718,930.644 712.524,920.750 C 712.987,915.072 712.883,912 712.230,912 C 711.676,912 707.572,917.062 703.111,923.250 C 692.573,937.865 682.309,950.421 680.590,950.801 C 679.726,950.992 677.173,946.924 673.614,939.688 C 670.526,933.410 668,927.817 668,927.259 C 668,926.701 667.263,925.633 666.363,924.886 ZM 666.971,645.518 C 666.094,646.060 666.258,651.998 668.095,686 C 668.674,696.725 669.552,714.275 670.044,725 C 670.536,735.725 671.385,752.600 671.930,762.500 C 672.475,772.400 673.605,796.250 674.441,815.500 C 675.277,834.750 676.403,856.125 676.943,863 C 677.483,869.875 678.712,890.463 679.673,908.750 C 680.838,930.917 681.783,942 682.506,942 C 683.103,942 687.396,936.961 692.046,930.803 C 696.696,924.645 702.449,917.332 704.831,914.553 C 713.562,904.366 713.598,904.234 714.886,878.500 C 715.519,865.850 716.029,842.225 716.020,826 C 716.005,799.780 716.198,796.145 717.752,793.304 C 719.402,790.288 731.952,773.878 740.164,764 C 742.221,761.525 750.520,751.175 758.604,741 C 766.688,730.825 775.858,719.575 778.983,716 C 788.258,705.389 797.330,692.922 796.383,692.089 C 795.120,690.978 784.727,686.887 768,680.918 C 760.025,678.072 746.075,673.096 737,669.861 C 727.925,666.626 718.250,663.100 715.500,662.026 C 701.293,656.480 667.716,645.058 666.971,645.518 ZM 670.996,619 C 667.941,630.453 667.468,634 668.995,634 C 669.542,634 682.806,625.338 698.469,614.750 C 714.133,604.162 728.718,594.375 730.881,593 C 742.263,585.764 757.017,575.398 757.417,574.356 C 757.668,573.702 752.390,568.231 745.687,562.198 C 722.156,541.018 697.678,520 696.543,520 C 695.567,520 683.690,565.686 675.876,599.500 C 674.732,604.450 672.536,613.225 670.996,619 ZM 682.750,630.711 C 675.737,635.413 670,639.597 670,640.008 C 670,640.738 672.585,641.776 690,648.034 C 698.251,650.999 717.043,657.820 751,670.174 C 760.075,673.476 768.625,676.544 770,676.994 C 771.375,677.444 778.921,680.088 786.769,682.870 C 791.525,684.556 796.282,686.242 801.038,687.928 C 803.189,685.357 805.340,682.785 807.491,680.214 C 829.826,653.515 836.983,644.306 836.991,642.250 C 836.996,641.013 836.600,640 836.110,640 C 835.620,640 826.929,632.688 816.796,623.750 C 806.663,614.812 794.169,603.900 789.032,599.500 C 783.895,595.100 775.993,588.237 771.473,584.250 C 766.953,580.263 762.993,577 762.673,577 C 762.147,577 707.368,613.708 699,619.668 C 697.075,621.039 689.763,626.009 682.750,630.711 ZM 694.982,254.500 C 685.123,271 677.043,284.995 677.028,285.600 C 676.999,286.716 682.740,297.580 691.507,313 C 694.165,317.675 700.031,328.250 704.544,336.500 C 709.057,344.750 715.253,356 718.313,361.500 C 721.373,367 724.539,372.703 725.348,374.174 C 727.039,377.246 725.270,377.052 768,378.860 C 781.475,379.430 799.016,380.356 806.981,380.917 C 815.091,381.489 821.841,381.559 822.324,381.076 C 822.807,380.593 822.080,376.537 820.672,371.857 C 819.289,367.261 814.712,350.225 810.500,334 C 806.288,317.775 801.478,299.775 799.811,294 C 797.003,284.274 790.669,261.365 782.393,231 C 780.519,224.125 776.519,209.050 773.503,197.500 C 766.392,170.269 761.449,152.536 760.577,151.125 C 760.194,150.506 759.346,150.015 758.691,150.035 C 757.440,150.072 757.042,150.712 733.524,190.500 C 725.396,204.250 717.433,217.525 715.827,220 C 714.221,222.475 704.841,238 694.982,254.500 ZM 682.729,960.469 C 680.721,960.236 678.714,960.002 676.706,959.769 C 676.880,961.057 677.055,962.347 677.229,963.635 C 677.953,968.981 687.436,989.802 690.698,993.206 C 695.051,997.750 697.659,996.988 700.733,990.273 C 704.584,981.862 710.853,947.606 708.916,945.564 C 708.379,944.998 705.798,947.092 702.392,950.856 C 694.726,959.327 690.538,961.375 682.729,960.469 ZM 728.740,483.874 C 713.472,499.002 701.322,511.692 701.740,512.075 C 702.401,512.680 735.436,518.237 788,526.584 C 796.525,527.938 807.473,529.739 812.329,530.587 C 815.272,531.101 818.215,531.615 821.158,532.129 C 826.366,528.691 831.576,525.253 836.784,521.815 C 858.980,507.163 861.327,505.519 861.714,504.359 C 862.028,503.416 837.036,479.920 829.422,474 C 827.653,472.625 820.197,466.088 812.853,459.474 C 790.567,439.403 782.260,432.755 780.615,433.677 C 778.681,434.761 762.701,450.225 728.740,483.874 ZM 705,518 C 704.450,518 704,518.389 704,518.865 C 704,519.341 714.234,528.678 726.742,539.615 C 758.117,567.048 761.658,570 763.205,570 C 764.492,570 800.661,546.721 809.846,539.981 C 812.299,538.181 813.815,536.415 813.325,535.925 C 812.848,535.448 809.092,534.562 804.979,533.957 C 800.866,533.352 795.025,532.458 792,531.971 C 788.975,531.484 783.350,530.597 779.500,530.001 C 768.356,528.277 744.032,524.331 724.250,521.038 C 714.212,519.367 705.550,518 705,518 ZM 706.403,88.399 C 704.030,89.310 704.808,90.688 709.750,94.330 C 712.362,96.255 715.850,99.268 717.500,101.025 C 723.128,107.017 739.101,119.299 740.042,118.358 C 741.067,117.333 730.543,105.189 721.655,97.140 C 715.450,91.521 708.559,87.572 706.403,88.399 ZM 720.029,900.500 C 719.533,901.600 719.098,903.995 719.063,905.823 C 719.014,908.392 719.374,909.073 720.648,908.823 C 722.516,908.456 727.918,894.585 726.676,893.343 C 725.857,892.524 721.519,897.195 720.029,900.500 ZM 720.749,852.250 C 720.593,867.237 720.361,881.836 720.233,884.691 C 719.834,893.561 722.563,892.560 730.076,881.079 C 732.466,877.426 732.872,875.949 732.415,872.579 C 731.751,867.691 728.602,851.118 725.844,838 C 721.691,818.251 721.084,819.947 720.749,852.250 ZM 725.371,811 C 724.688,811 725.126,813.754 727.277,823 C 728.109,826.575 730.227,837.150 731.986,846.500 C 736.089,868.315 736.048,868.150 737.300,867.733 C 740.775,866.575 742.033,851.510 739.494,841.460 C 738.039,835.700 726.587,811 725.371,811 ZM 730.684,782.708 C 729.851,783.232 729.977,783.548 731.109,783.773 C 731.994,783.949 734.971,782.693 737.723,780.982 C 747.241,775.065 754.058,773.991 788.795,772.938 C 811.800,772.241 820.992,771.612 823.496,770.566 C 825.370,769.783 832.663,765.785 839.702,761.682 C 853.175,753.828 877.357,740.390 890,733.731 C 894.125,731.558 897.688,729.606 897.917,729.391 C 898.885,728.484 900.078,728.962 859,713.759 C 837.287,705.723 830.291,703.202 816.162,698.326 C 811.716,696.792 807.269,695.256 802.823,693.722 C 801.984,694.561 801.144,695.402 800.305,696.241 C 798.920,697.626 794.572,702.840 790.643,707.829 C 786.714,712.818 779,722.368 773.500,729.052 C 762.350,742.602 753.292,754.036 740.484,770.732 C 735.745,776.909 731.335,782.298 730.684,782.708 ZM 743.204,795.546 C 735.253,795.986 731.033,796.601 731.262,797.287 C 731.912,799.237 744.377,801.240 756,801.262 C 769.240,801.286 776.590,799.717 786.721,794.700 C 795.593,790.307 809.268,781.697 809.771,780.188 C 810.620,777.641 802.580,779.139 791.995,783.502 C 775.051,790.485 757.830,794.736 743.204,795.546 ZM 736.250,382.002 C 735.013,382.001 734,382.368 734,382.819 C 734,383.657 755.446,403.480 771.374,417.364 C 776.255,421.618 780.835,424.964 781.553,424.799 C 783.527,424.346 819,389.753 819,388.281 C 819,387.576 818.615,387 818.145,387 C 817.675,387 811.712,386.558 804.895,386.018 C 792.675,385.050 740.627,382.005 736.250,382.002 ZM 739.859,788.587 C 738.400,789.488 739.419,791.452 741.561,791.867 C 745.423,792.615 774.239,786.599 781.677,783.491 C 786.209,781.597 785.133,779.512 780.123,780.479 C 778.130,780.864 772.900,781.755 768.500,782.460 C 758.656,784.037 741.168,787.778 739.859,788.587 ZM 744.750,780.689 C 743.727,781.274 743.805,782.762 744.895,783.435 C 746.596,784.486 765.500,779.857 765.500,778.389 C 765.500,776.776 761.120,776.838 753.254,778.561 C 748.989,779.495 745.162,780.453 744.750,780.689 ZM 766.039,146 C 764.380,146 764.718,147.826 770.060,167.687 C 772.843,178.034 775.724,188.975 776.461,192 C 777.198,195.025 780.139,206.050 782.996,216.500 C 785.853,226.950 789.480,240.450 791.055,246.500 C 792.631,252.550 795.465,262.675 797.353,269 C 799.241,275.325 802.702,287.475 805.042,296 C 807.382,304.525 809.920,313.750 810.682,316.500 C 811.444,319.250 814.061,329.150 816.498,338.500 C 821.944,359.398 826.862,376.500 827.427,376.500 C 828.534,376.500 837.973,360.575 854.986,330 C 876.240,291.804 886.566,273.606 889.030,270 C 892.690,264.643 892.501,263.485 886.449,254.225 C 883.313,249.426 877.766,240.867 874.123,235.205 C 870.480,229.543 861.857,216.268 854.961,205.705 C 848.064,195.142 839.740,182.343 836.461,177.263 C 832.585,171.257 829.447,167.521 827.489,166.580 C 823.966,164.887 767.571,146 766.039,146 ZM 771.250,571.245 C 768.985,573.057 769.930,573.845 775.750,574.994 C 778.912,575.619 783.525,576.751 786,577.512 C 788.475,578.273 795.900,580.293 802.500,582.001 C 809.100,583.709 821.925,587.088 831,589.510 C 840.075,591.932 856.950,596.359 868.500,599.349 C 880.050,602.339 897.283,606.913 906.796,609.513 C 916.309,612.113 924.351,613.983 924.666,613.668 C 924.981,613.353 920.967,605.761 915.746,596.797 C 910.525,587.833 902.259,573.365 897.377,564.644 C 892.495,555.923 887.591,548.176 886.480,547.429 C 884.590,546.158 879.488,545.210 854.500,541.486 C 849,540.666 841.575,539.517 838,538.932 C 821.328,536.204 825.485,534.709 797.446,553.514 C 783.725,562.716 771.938,570.695 771.250,571.245 ZM 774.750,579.015 C 774.338,579.007 774,579.378 774,579.841 C 774,580.618 804.608,607.807 830.296,629.848 C 842.768,640.550 840.416,640.116 858.500,635.054 C 864.550,633.360 874.225,630.852 880,629.479 C 900.735,624.550 919.500,619.306 919.500,618.441 C 919.500,617.956 912.300,615.633 903.500,613.278 C 894.700,610.923 883.450,607.900 878.500,606.561 C 854.631,600.102 811.382,588.775 802,586.527 C 796.225,585.143 787.900,582.890 783.500,581.520 C 779.100,580.150 775.162,579.023 774.750,579.015 ZM 786.989,426.913 C 785.385,429.656 785.860,430.541 791.375,435.078 C 800.278,442.402 859.278,494.558 862.437,497.896 C 865.964,501.623 867.857,501.756 872.771,498.622 C 874.822,497.314 884.150,491.848 893.500,486.476 C 902.850,481.104 914.325,474.359 919,471.488 C 923.675,468.617 934.250,462.304 942.500,457.460 C 983.754,433.239 1001.242,422.534 1001.761,421.181 C 1002.812,418.443 998.937,407.060 985.533,373.500 C 978.280,355.340 976.249,351 975.008,351 C 974.448,351 963.755,353.504 951.245,356.564 C 938.735,359.624 926.700,362.499 924.500,362.951 C 922.300,363.403 912.400,365.873 902.500,368.439 C 892.600,371.005 871.675,376.325 856,380.261 C 846.500,382.646 837,385.032 827.500,387.417 C 820.903,393.735 814.306,400.054 807.709,406.372 C 796.824,416.797 787.499,426.040 786.989,426.913 ZM 803.504,151.360 C 801.172,152.255 802.643,154 805.730,154 C 807.167,154 809.053,154.632 809.921,155.403 C 812.110,157.348 822.205,160.195 823.240,159.160 C 824.288,158.112 813.156,153 809.825,153 C 808.491,153 806.890,152.490 806.267,151.867 C 805.644,151.244 804.401,151.016 803.504,151.360 ZM 813.231,679.927 C 809.783,684.092 807.083,688.099 807.231,688.831 C 807.379,689.563 809.750,690.967 812.500,691.952 C 815.250,692.937 827.400,697.366 839.500,701.795 C 860.353,709.427 887.153,718.996 897,722.324 C 900.430,723.483 901.758,723.566 902.584,722.672 C 903.578,721.598 905.070,715.884 910.988,690.500 C 913.852,678.213 920.760,649.725 922.506,643 C 924.514,635.265 927,624.521 927,623.581 C 927,622.204 920.224,623.609 892.500,630.735 C 877.650,634.552 860.550,638.868 854.500,640.327 C 846.070,642.360 843.033,643.543 841.500,645.393 C 840.400,646.720 835,653.329 829.500,660.080 C 824,666.831 816.679,675.762 813.231,679.927 ZM 847.515,520.109 C 838.432,526.178 831,531.553 831,532.053 C 831,533.125 832.812,533.550 843.500,534.982 C 847.900,535.572 853.975,536.516 857,537.081 C 860.025,537.646 865.200,538.519 868.500,539.021 C 871.800,539.523 876.412,540.232 878.750,540.598 C 883.698,541.372 884.018,540.598 880.750,535.754 C 879.513,533.920 875.800,527.384 872.500,521.232 C 869.200,515.080 865.944,509.827 865.265,509.560 C 864.586,509.293 856.598,514.040 847.515,520.109 ZM 835.838,373.500 C 831.939,380.458 832.162,381.411 837.325,379.868 C 841.460,378.632 895.294,365.116 900.500,364.006 C 902.700,363.537 918,359.791 934.500,355.682 C 951,351.573 966.216,347.912 968.314,347.548 C 973.232,346.694 972.657,344.885 966.928,343.188 C 933.139,333.177 924.933,329.311 916.648,319.500 C 913.397,315.650 909.181,309.125 907.280,305 C 905.379,300.875 903.255,296.375 902.560,295 C 901.865,293.625 899.801,287.775 897.973,282 C 896.145,276.225 894.315,271.109 893.906,270.631 C 893.497,270.153 892.306,271.503 891.260,273.631 C 890.214,275.759 884.032,286.950 877.521,298.500 C 871.010,310.050 859.598,330.525 852.161,344 C 844.724,357.475 837.379,370.750 835.838,373.500 ZM 835.879,167 C 834.227,167 835,168.847 838.658,173.639 C 843.271,179.682 872.683,224.748 879.195,235.750 C 890.556,254.946 886.810,237.563 874.185,212.500 C 871.691,207.550 868.093,201.025 866.189,198 C 862.880,192.743 837.709,167 835.879,167 ZM 839.312,161 C 836.652,161 838.223,162.985 848.055,172.050 C 870.593,192.830 881.499,211.436 892.574,248 C 894.656,254.875 896.798,261.080 897.334,261.789 C 897.870,262.498 907.801,269.649 919.404,277.682 C 954.723,302.134 956.265,303.594 965.940,321.734 C 973.561,336.023 979.099,343.891 986.188,350.500 C 991.903,355.828 994.419,360.324 998.630,372.733 C 1003.420,386.847 1004.185,385.732 1002.962,366.413 C 998.984,303.559 980.926,259.640 943.362,221.459 C 924.389,202.175 907.872,190.530 880.500,177.141 C 865.225,169.669 843.103,161 839.312,161 ZM 843.593,764.501 C 838.627,767.210 841.761,768.366 849.113,766.538 C 857.341,764.492 882.091,752.195 888.287,747.075 C 897.810,739.206 903.264,733.931 902.583,733.250 C 902.201,732.868 898.426,734.404 894.194,736.665 C 889.962,738.926 883.015,742.635 878.755,744.907 C 874.495,747.179 865.495,752.161 858.755,755.977 C 852.015,759.793 845.192,763.629 843.593,764.501 ZM 874.750,502.350 C 872.138,503.854 870,505.737 870,506.535 C 870,507.333 874.344,515.647 879.652,525.012 C 886.637,537.334 889.884,542.147 891.402,542.434 C 892.556,542.652 900.700,544.030 909.500,545.496 C 918.300,546.962 931.800,549.221 939.500,550.514 C 972.956,556.134 986.072,558.074 986.947,557.533 C 987.955,556.910 993.990,538.312 996.369,528.500 C 997.169,525.200 998.785,517.325 999.961,511 C 1001.137,504.675 1002.545,497.925 1003.090,496 C 1004.718,490.253 1006.280,451.669 1005.062,447.284 C 1004.484,445.203 1004.009,441.419 1004.006,438.875 C 1003.998,431.989 1002.975,428 1001.219,428 C 1000.377,428 998.296,429.043 996.594,430.318 C 994.892,431.593 989.225,435.043 984,437.985 C 978.775,440.927 973.323,444.147 971.885,445.139 C 970.447,446.131 962.797,450.711 954.885,455.315 C 946.973,459.919 926.775,471.770 910,481.650 C 893.225,491.530 877.362,500.846 874.750,502.350 ZM 891.408,750.073 C 883.724,755.375 888.557,754.995 898.275,749.534 C 931.250,731.003 961.691,694.292 978.324,653 C 988.413,627.953 998.824,585.486 1001.490,558.500 C 1001.816,555.200 1002.493,549.800 1002.995,546.500 C 1004.425,537.095 1005.241,520.733 1004.249,521.346 C 1003.761,521.647 1002.107,526.305 1000.573,531.697 C 995.203,550.565 991.857,559.897 989.103,563.683 C 984.504,570.004 962.571,592.312 947.896,605.594 C 943.302,609.752 938.709,613.909 934.115,618.067 C 934.308,626.139 934.501,634.212 934.694,642.284 C 935.311,668.126 934.309,679.208 929.925,695.029 C 927.681,703.126 921.174,716.892 915.680,725.166 C 911.048,732.141 898.017,745.513 891.408,750.073 ZM 897.250,548.264 C 892.978,547.629 893.062,548.793 897.878,556.940 C 900.011,560.548 905.255,569.575 909.531,577 C 913.807,584.425 918.531,592.525 920.028,595 C 921.525,597.475 924.420,602.537 926.461,606.250 C 928.502,609.963 930.739,613 931.433,613 C 935.290,613 982,567.962 982,564.244 C 982,562.461 981.434,562.001 979.250,562.005 C 977.737,562.008 969.300,560.674 960.500,559.042 C 951.700,557.410 940.225,555.388 935,554.547 C 929.775,553.706 919.875,552.057 913,550.883 C 906.125,549.708 899.037,548.530 897.250,548.264 ZM 900.650,271 C 899.130,271 900.274,275.811 904.449,286.972 C 909.790,301.250 912.968,307.688 918.109,314.647 C 924.728,323.607 930.272,326.867 948.533,332.532 C 966.311,338.048 967.878,338.456 968.583,337.751 C 969.326,337.008 959.883,318.837 955.044,311.699 C 953.254,309.058 949.244,304.779 946.133,302.190 C 936.639,294.289 902.678,271 900.650,271 ZM 910.131,713.500 C 909.082,717.350 908.286,722.075 908.362,724 C 908.408,725.167 908.454,726.333 908.500,727.500 C 909.865,725.445 911.230,723.390 912.595,721.335 C 920.290,709.750 925.853,694.004 929.871,672.440 C 931.957,661.246 931.058,633.794 928.732,637.643 C 927.838,639.122 924.227,653.580 918.027,680.500 C 914.733,694.800 911.180,709.650 910.131,713.500 ZM 983.636,356.698 C 983.252,357.082 983.152,357.869 983.415,358.448 C 983.678,359.027 986.861,366.925 990.490,376 C 994.119,385.075 997.540,393.581 998.092,394.902 C 998.807,396.613 999.404,396.996 1000.169,396.231 C 1000.934,395.466 1000.671,393.193 999.254,388.329 C 998.160,384.573 996.476,378.449 995.513,374.721 C 994.543,370.966 992.041,365.279 989.903,361.971 C 986.146,356.158 985.076,355.258 983.636,356.698 Z" fill="#8A8888" stroke="none"/>
  <path id="79" d="M 77.390,327.091 C 78.155,326.456 81.417,324.884 84.640,323.596 C 87.863,322.308 104.675,315.510 122,308.489 C 139.325,301.468 158.900,293.590 165.500,290.983 C 172.100,288.376 192.800,280.114 211.500,272.623 C 230.200,265.132 247.758,258.103 250.519,257.002 C 256.893,254.460 257.854,254.490 258.439,257.250 C 258.944,259.636 263.553,286.180 267.511,309.500 C 275.298,355.378 278.122,371.667 278.520,373 C 278.766,373.825 280.523,383.725 282.425,395 C 285.926,415.752 291.990,450.909 294.193,463.219 C 294.854,466.914 295.151,470.182 294.852,470.481 C 294.553,470.780 286.608,465.957 277.196,459.763 C 260.557,448.812 247.233,440.121 178.500,395.389 C 140.305,370.531 123.569,359.614 102,345.485 C 93.475,339.901 84.137,333.859 81.250,332.061 C 78.363,330.263 76,328.668 76,328.518 C 76,328.368 76.625,327.726 77.390,327.091 Z" fill="#FFFFFF" stroke="none"/>
  <path id="68" d="M 73.131,333.792 C 73.787,332.727 78.784,335.612 99.696,349.131 C 122.341,363.771 179.250,400.852 197,412.534 C 200.575,414.887 210.025,421.054 218,426.239 C 250.529,447.387 260.027,453.608 271,460.955 C 277.325,465.190 284.638,469.900 287.250,471.422 C 289.862,472.944 292,474.746 292,475.426 C 292,476.142 286.211,478.450 278.250,480.908 C 270.688,483.243 255.050,488.233 243.500,491.995 C 231.950,495.757 210.350,502.725 195.500,507.478 C 180.650,512.231 160.801,518.641 151.390,521.721 C 141.979,524.801 133.550,527.041 132.658,526.699 C 130.903,526.026 126.232,519.010 115.546,501 C 111.793,494.675 106.383,485.675 103.524,481 C 100.665,476.325 92.547,462.825 85.485,451 C 81.205,443.833 76.925,436.667 72.645,429.500 C 72.621,413.719 72.597,397.939 72.573,382.158 C 72.533,356.120 72.784,334.355 73.131,333.792 Z" fill="#FFFFFF" stroke="none"/>
  <path id="79" d="M 324.036,220 C 326.794,216.425 333.551,208.100 339.051,201.500 C 344.551,194.900 359.728,176.228 372.776,160.008 C 391.794,136.366 416.202,106.840 421.041,101.622 C 421.489,101.139 424.026,100.157 426.678,99.439 C 429.330,98.721 432.850,97.670 434.500,97.104 C 437.819,95.965 460.954,89.543 476.500,85.445 C 487.425,82.565 493.020,82.559 505.082,85.411 C 508.612,86.246 518.475,88.561 527,90.556 C 535.525,92.551 546.550,95.248 551.500,96.549 C 556.450,97.850 561.400,99.053 562.500,99.221 C 563.600,99.389 564.500,100.062 564.500,100.715 C 564.500,102.542 514.323,152.371 461.500,203.002 C 454.900,209.328 441.707,222.050 432.183,231.273 C 422.659,240.496 413.825,248.723 412.551,249.558 C 410.404,250.965 408.209,250.559 382.368,243.979 C 346.175,234.763 323.978,229.229 321.583,228.824 C 318.386,228.284 318.804,226.781 324.036,220 Z" fill="#FFFFFF" stroke="none"/>
  <path id="68" d="M 786.989,426.913 C 787.499,426.040 796.824,416.797 807.709,406.372 C 814.306,400.054 820.903,393.735 827.500,387.417 C 837,385.032 846.500,382.646 856,380.261 C 871.675,376.325 892.600,371.005 902.500,368.439 C 912.400,365.873 922.300,363.403 924.500,362.951 C 926.700,362.499 938.735,359.624 951.245,356.564 C 963.755,353.504 974.448,351 975.008,351 C 976.249,351 978.280,355.340 985.533,373.500 C 998.937,407.060 1002.812,418.443 1001.761,421.181 C 1001.242,422.534 983.754,433.239 942.500,457.460 C 934.250,462.304 923.675,468.617 919,471.488 C 914.325,474.359 902.850,481.104 893.500,486.476 C 884.150,491.848 874.822,497.314 872.771,498.622 C 867.857,501.756 865.964,501.623 862.437,497.896 C 859.278,494.558 800.278,442.402 791.375,435.078 C 785.860,430.541 785.385,429.656 786.989,426.913 Z" fill="#FFFFFF" stroke="none"/>
  <path id="79" d="M 694.982,254.500 C 704.841,238 714.221,222.475 715.827,220 C 717.433,217.525 725.396,204.250 733.524,190.500 C 757.042,150.712 757.440,150.072 758.691,150.035 C 759.346,150.015 760.194,150.506 760.577,151.125 C 761.449,152.536 766.392,170.269 773.503,197.500 C 776.519,209.050 780.519,224.125 782.393,231 C 790.669,261.365 797.003,284.274 799.811,294 C 801.478,299.775 806.288,317.775 810.500,334 C 814.712,350.225 819.289,367.261 820.672,371.857 C 822.080,376.537 822.807,380.593 822.324,381.076 C 821.841,381.559 815.091,381.489 806.981,380.917 C 799.016,380.356 781.475,379.430 768,378.860 C 725.270,377.052 727.039,377.246 725.348,374.174 C 724.539,372.703 721.373,367 718.313,361.500 C 715.253,356 709.057,344.750 704.544,336.500 C 700.031,328.250 694.165,317.675 691.507,313 C 682.740,297.580 676.999,286.716 677.028,285.600 C 677.043,284.995 685.123,271 694.982,254.500 Z" fill="#FFFFFF" stroke="none"/>
  <path id="79" d="M 371.250,306.023 C 374.138,306.036 382.350,306.948 389.500,308.052 C 403.634,310.233 419.204,312.474 431,314.025 C 457.889,317.559 469.522,319.190 477,320.471 C 481.675,321.272 495.850,323.326 508.500,325.037 C 545.378,330.024 560.358,332.243 562.553,333.048 C 564.429,333.736 564.718,335.193 565.904,349.960 C 567.431,368.971 567.611,368.510 557.283,371.999 C 553.641,373.229 547.699,375.575 544.080,377.212 C 540.461,378.849 534.575,381.239 531,382.523 C 527.425,383.807 515.050,388.744 503.500,393.495 C 491.950,398.246 480.250,402.948 477.500,403.945 C 474.750,404.942 453.825,413.184 431,422.261 C 408.175,431.338 387.869,439.338 385.876,440.038 C 379.936,442.124 379.315,441.328 378.689,430.828 C 378.383,425.697 377.671,417.900 377.107,413.500 C 376.543,409.100 375.626,400.550 375.069,394.500 C 373.205,374.242 371.036,353.568 369.981,346 C 369.005,338.999 366.038,310.029 366.012,307.250 C 366.004,306.404 367.698,306.007 371.250,306.023 Z" fill="#FFFFFF" stroke="none"/>
  <path id="79" d="M 666.971,645.518 C 667.716,645.058 701.293,656.480 715.500,662.026 C 718.250,663.100 727.925,666.626 737,669.861 C 746.075,673.096 760.025,678.072 768,680.918 C 784.727,686.887 795.120,690.978 796.383,692.089 C 797.330,692.922 788.258,705.389 778.983,716 C 775.858,719.575 766.688,730.825 758.604,741 C 750.520,751.175 742.221,761.525 740.164,764 C 731.952,773.878 719.402,790.288 717.752,793.304 C 716.198,796.145 716.005,799.780 716.020,826 C 716.029,842.225 715.519,865.850 714.886,878.500 C 713.598,904.234 713.562,904.366 704.831,914.553 C 702.449,917.332 696.696,924.645 692.046,930.803 C 687.396,936.961 683.103,942 682.506,942 C 681.783,942 680.838,930.917 679.673,908.750 C 678.712,890.463 677.483,869.875 676.943,863 C 676.403,856.125 675.277,834.750 674.441,815.500 C 673.605,796.250 672.475,772.400 671.930,762.500 C 671.385,752.600 670.536,735.725 670.044,725 C 669.552,714.275 668.674,696.725 668.095,686 C 666.258,651.998 666.094,646.060 666.971,645.518 Z" fill="#FFFFFF" stroke="none"/>
  <path id="79" d="M 766.039,146 C 767.571,146 823.966,164.887 827.489,166.580 C 829.447,167.521 832.585,171.257 836.461,177.263 C 839.740,182.343 848.064,195.142 854.961,205.705 C 861.857,216.268 870.480,229.543 874.123,235.205 C 877.766,240.867 883.313,249.426 886.449,254.225 C 892.501,263.485 892.690,264.643 889.030,270 C 886.566,273.606 876.240,291.804 854.986,330 C 837.973,360.575 828.534,376.500 827.427,376.500 C 826.862,376.500 821.944,359.398 816.498,338.500 C 814.061,329.150 811.444,319.250 810.682,316.500 C 809.920,313.750 807.382,304.525 805.042,296 C 802.702,287.475 799.241,275.325 797.353,269 C 795.465,262.675 792.631,252.550 791.055,246.500 C 789.480,240.450 785.853,226.950 782.996,216.500 C 780.139,206.050 777.198,195.025 776.461,192 C 775.724,188.975 772.843,178.034 770.060,167.687 C 764.718,147.826 764.380,146 766.039,146 Z" fill="#FFFFFF" stroke="none"/>
  <path id="79" d="M 402.656,563.870 C 403.670,562.985 410.350,559.104 417.500,555.244 C 424.650,551.384 434.775,545.876 440,543.003 C 454.497,535.033 461.333,531.325 475.500,523.742 C 482.650,519.915 488.950,516.432 489.500,516.002 C 490.050,515.572 497.700,511.410 506.500,506.752 C 515.300,502.094 532.328,493.017 544.340,486.582 C 568.467,473.656 570.660,472.641 571.501,474.001 C 571.815,474.509 571.182,478.205 570.094,482.213 C 569.006,486.221 566.091,497.600 563.616,507.500 C 561.141,517.400 557.003,533.600 554.420,543.500 C 551.837,553.400 548.929,564.875 547.958,569 C 546.987,573.125 542.723,590 538.483,606.500 C 534.243,623 529.889,640.100 528.808,644.500 C 527.727,648.900 526.485,652.869 526.049,653.321 C 525.613,653.773 520.362,650.584 514.379,646.234 C 508.396,641.884 498.550,634.795 492.500,630.480 C 486.450,626.165 472.050,615.873 460.500,607.608 C 428.963,585.041 404.393,567.623 402.500,566.490 C 400.932,565.551 400.943,565.365 402.656,563.870 Z" fill="#FFFFFF" stroke="none"/>
  <path id="79" d="M 452.654,217.411 C 471.757,198.760 489.450,181.475 491.973,179 C 528.811,142.858 565.475,107.330 566.588,106.700 C 568.627,105.545 568.457,133.788 566.024,200.500 C 562.778,289.499 562.914,287.096 561.136,287.778 C 559.802,288.290 489.584,271.291 454.500,261.962 C 448.450,260.353 438.167,257.724 431.649,256.118 C 425.131,254.512 419.376,252.776 418.860,252.260 C 418.275,251.675 431.007,238.546 452.654,217.411 Z" fill="#FFFFFF" stroke="none"/>
  <path id="79" d="M 261.147,550 C 267.783,538.175 277.165,521.525 281.995,513 C 286.825,504.475 292.668,494.015 294.977,489.755 C 297.286,485.495 299.559,481.772 300.029,481.482 C 300.823,480.991 310.198,489.079 340.612,516.500 C 359.404,533.442 381.827,553.980 387.349,559.307 C 389.010,560.909 390.671,562.512 392.332,564.114 C 377.865,578.595 363.399,593.076 348.932,607.557 C 325.062,631.451 305.041,651 304.443,651 C 303.845,651 302.232,649.312 300.859,647.250 C 297.966,642.905 259.719,589.327 253.316,580.651 C 250.942,577.434 249.018,574.059 249.041,573.151 C 249.064,572.243 254.511,561.825 261.147,550 Z" fill="#FFFFFF" stroke="none"/>
  <path id="79" d="M 265.571,251.150 C 266.985,250.506 277.889,246.114 289.803,241.391 C 305.478,235.177 311.884,233.068 312.979,233.759 C 313.812,234.284 315.620,236.571 316.997,238.842 C 318.374,241.113 323.933,249.389 329.351,257.235 C 359.319,300.630 359.092,300.270 358.651,304 C 358.423,305.925 355.209,315.600 351.508,325.500 C 343,348.259 334.084,372.923 328.552,389 C 323.009,405.108 315.552,425.730 312.280,434 C 310.865,437.575 307.707,446.125 305.262,453 C 302.817,459.875 300.636,465.500 300.414,465.500 C 300.019,465.500 296.571,447.381 289.377,407.500 C 282.433,369.006 263,255.579 263,253.544 C 263,252.871 264.157,251.794 265.571,251.150 Z" fill="#FFFFFF" stroke="none"/>
  <path id="79" d="M 532.101,649.500 C 532.612,647.850 539.131,622.425 546.588,593 C 554.045,563.575 562.197,531.625 564.704,522 C 567.211,512.375 570.370,500 571.725,494.500 C 575.244,480.213 576.367,476.683 577.500,476.341 C 578.977,475.895 659.595,637.813 658.445,638.917 C 657.925,639.416 655.025,640.034 652,640.291 C 645.476,640.845 593.544,647.442 583.500,648.992 C 579.650,649.586 571.775,650.514 566,651.054 C 560.225,651.594 554.668,652.297 553.650,652.617 C 550.719,653.538 532.580,655.759 531.750,655.298 C 530.820,654.782 530.907,653.358 532.101,649.500 Z" fill="#FFFFFF" stroke="none"/>
  <path id="79" d="M 568.033,267.500 C 568.418,257.600 569.234,238.700 569.847,225.500 C 570.460,212.300 571.425,185.750 571.991,166.500 C 573.238,124.082 573.988,109 574.849,109.001 C 575.207,109.001 576.429,110.914 577.564,113.251 C 578.699,115.588 584.050,125.600 589.454,135.500 C 594.858,145.400 602.068,158.675 605.476,165 C 617.338,187.017 631.315,212.588 638.818,226 C 654.592,254.197 654,252.943 654,258.196 C 654,260.901 653.580,265.001 653.067,267.307 C 652.554,269.613 651.229,276.225 650.124,282 C 643.702,315.570 639.769,334.593 639.111,335.269 C 638.120,336.288 624.832,328.227 594.858,308.425 C 571.970,293.304 566.738,289.167 567.167,286.527 C 567.259,285.962 567.648,277.400 568.033,267.500 Z" fill="#FFFFFF" stroke="none"/>
  <path id="79" d="M 874.750,502.350 C 877.362,500.846 893.225,491.530 910,481.650 C 926.775,471.770 946.973,459.919 954.885,455.315 C 962.797,450.711 970.447,446.131 971.885,445.139 C 973.323,444.147 978.775,440.927 984,437.985 C 989.225,435.043 994.892,431.593 996.594,430.318 C 998.296,429.043 1000.377,428 1001.219,428 C 1002.975,428 1003.998,431.989 1004.006,438.875 C 1004.009,441.419 1004.484,445.203 1005.062,447.284 C 1006.280,451.669 1004.718,490.253 1003.090,496 C 1002.545,497.925 1001.137,504.675 999.961,511 C 998.785,517.325 997.169,525.200 996.369,528.500 C 993.990,538.312 987.955,556.910 986.947,557.533 C 986.072,558.074 972.956,556.134 939.500,550.514 C 931.800,549.221 918.300,546.962 909.500,545.496 C 900.700,544.030 892.556,542.652 891.402,542.434 C 889.884,542.147 886.637,537.334 879.652,525.012 C 874.344,515.647 870,507.333 870,506.535 C 870,505.737 872.138,503.854 874.750,502.350 Z" fill="#FFFFFF" stroke="none"/>
  <path id="79" d="M 382.420,451.392 C 383.289,451.059 384.788,451.093 385.750,451.469 C 387.389,452.108 404.982,453.761 434,456.001 C 440.875,456.532 447.625,457.250 449,457.598 C 450.375,457.946 456,458.625 461.500,459.107 C 479.360,460.672 493.296,461.925 503.500,462.882 C 509,463.398 521.600,464.539 531.500,465.419 C 541.400,466.299 551.387,467.464 553.693,468.009 C 555.999,468.554 559.487,469 561.443,469 C 563.399,469 565,469.400 565,469.889 C 565,470.378 561.287,472.697 556.750,475.043 C 552.213,477.389 539.725,484.033 529,489.807 C 518.275,495.581 506.800,501.751 503.500,503.518 C 486.140,512.815 458.586,527.794 452,531.513 C 447.875,533.843 441.575,537.296 438,539.188 C 434.425,541.080 424.750,546.268 416.500,550.716 C 408.250,555.164 400.541,559.086 399.369,559.431 C 397.361,560.022 397.116,559.400 395.109,548.630 C 393.938,542.344 392.293,532.544 391.454,526.851 C 390.615,521.158 389.264,512.225 388.452,507 C 387.640,501.775 386.557,493.900 386.045,489.500 C 384.552,476.678 382.025,457.735 381.409,454.749 C 381.005,452.790 381.295,451.824 382.420,451.392 Z" fill="#FFFFFF" stroke="none"/>
  <path id="79" d="M 577.181,99.515 C 579.335,98.739 602.790,92.004 612.500,89.373 C 617.450,88.032 628.025,84.867 636,82.340 C 640.833,80.808 645.667,79.276 650.500,77.744 C 654.167,78.269 657.833,78.795 661.500,79.320 C 667.550,80.187 675.735,81.187 679.689,81.543 C 683.643,81.899 687.530,82.710 688.326,83.345 C 689.573,84.340 689.182,87.403 685.497,105.500 C 683.146,117.050 675.984,152.600 669.584,184.500 C 663.184,216.400 657.726,243.512 657.455,244.750 C 657.184,245.988 656.560,247 656.070,247 C 655.580,247 651.694,240.587 647.434,232.750 C 632.596,205.449 622.701,187.447 618.167,179.500 C 615.657,175.100 610.400,165.425 606.485,158 C 598.254,142.389 587.612,122.781 581.519,112 C 576.329,102.817 575.404,100.155 577.181,99.515 Z" fill="#FFFFFF" stroke="none"/>
  <path id="79" d="M 645.892,346.567 C 646.401,346.253 651.639,348.275 657.533,351.062 C 663.427,353.849 674.510,358.818 682.161,362.104 C 689.812,365.390 703.030,371.405 711.534,375.469 C 726.505,382.624 727.385,383.220 739.248,394.200 C 745.987,400.437 757.237,410.652 764.250,416.900 C 771.263,423.148 777,428.790 777,429.436 C 777,430.082 772.612,434.826 767.250,439.977 C 761.888,445.128 743.830,462.765 727.122,479.171 C 710.414,495.577 696.366,509 695.904,509 C 695.442,509 692.759,501.688 689.942,492.750 C 687.125,483.812 682.185,468.175 678.964,458 C 675.743,447.825 671.042,432.750 668.516,424.500 C 665.990,416.250 662.601,405.225 660.984,400 C 656.272,384.772 648.982,359.932 647.612,354.437 C 646.918,351.653 646.039,348.872 645.659,348.257 C 645.279,347.642 645.383,346.881 645.892,346.567 Z" fill="#FFFFFF" stroke="none"/>
  <path id="79" d="M 682.750,630.711 C 689.763,626.009 697.075,621.039 699,619.668 C 707.368,613.708 762.147,577 762.673,577 C 762.993,577 766.953,580.263 771.473,584.250 C 775.993,588.237 783.895,595.100 789.032,599.500 C 794.169,603.900 806.663,614.812 816.796,623.750 C 826.929,632.688 835.620,640 836.110,640 C 836.600,640 836.996,641.013 836.991,642.250 C 836.983,644.306 829.826,653.515 807.491,680.214 C 805.340,682.785 803.189,685.357 801.038,687.928 C 796.282,686.242 791.525,684.556 786.769,682.870 C 778.921,680.088 771.375,677.444 770,676.994 C 768.625,676.544 760.075,673.476 751,670.174 C 717.043,657.820 698.251,650.999 690,648.034 C 672.585,641.776 670,640.738 670,640.008 C 670,639.597 675.737,635.413 682.750,630.711 Z" fill="#FFFFFF" stroke="none"/>
  <path id="79" d="M 87.310,308.395 C 113.598,279.172 123.053,268.779 128.931,262.650 C 134.969,256.354 151.087,242.394 162,234.008 C 164.475,232.106 170.605,227.164 175.622,223.025 C 180.639,218.886 192.993,208.750 203.076,200.500 C 213.159,192.250 224.804,182.542 228.954,178.927 C 237.043,171.881 241.793,168.460 242.503,169.170 C 243.064,169.731 245.906,184.785 250.493,211.500 C 252.476,223.050 254.780,235.984 255.613,240.242 C 256.446,244.500 256.875,248.393 256.566,248.893 C 256.257,249.393 239.916,256.194 220.252,264.006 C 200.588,271.818 174.825,282.184 163,287.042 C 131.620,299.933 81.056,320 79.952,320 C 77.686,320 79.636,316.926 87.310,308.395 Z" fill="#FFFFFF" stroke="none"/>
  <path id="79" d="M 386.667,444.667 C 387.034,444.300 387.990,444 388.792,444 C 389.594,444 392.781,442.896 395.875,441.547 C 398.969,440.198 420.400,431.609 443.500,422.460 C 466.600,413.311 491.350,403.443 498.500,400.530 C 526.273,389.217 564.949,374 565.931,374 C 567.355,374 567.790,376.710 568.503,390 C 569.816,414.482 570.796,430.135 572.027,446.264 C 572.731,455.484 573.022,463.311 572.675,463.658 C 571.986,464.347 554.889,463.080 523,459.976 C 472.996,455.108 420.249,450.199 399,448.437 C 386.689,447.416 384.567,446.767 386.667,444.667 Z" fill="#FFFFFF" stroke="none"/>
  <path id="79" d="M 253.332,160.696 C 255.165,159.298 258.427,157.166 260.582,155.956 C 278.620,145.832 293.884,136.685 313.356,124.334 C 319.044,120.726 323.309,118.816 327.500,118.002 C 330.800,117.361 335.525,116.439 338,115.952 C 348.628,113.863 354.815,112.703 359.500,111.924 C 362.250,111.467 367.200,110.604 370.500,110.008 C 373.800,109.412 379.200,108.512 382.500,108.007 C 385.800,107.502 392.100,106.398 396.500,105.553 C 400.900,104.708 406.517,103.712 408.983,103.340 C 414.601,102.493 418.015,97.586 383.486,140 C 379.232,145.225 370.520,155.940 364.126,163.810 C 357.732,171.680 347.844,183.830 342.153,190.810 C 336.462,197.790 330.016,205.750 327.829,208.500 C 317.948,220.922 314.434,224.986 313.568,224.993 C 312.586,225.001 310.281,222.824 273.250,186.917 C 260.462,174.518 250,164.117 250,163.805 C 250,163.493 251.499,162.094 253.332,160.696 Z" fill="#FFFFFF" stroke="none"/>
  <path id="79" d="M 534.901,660.561 C 535.397,660.255 539.109,659.548 543.151,658.991 C 562.796,656.283 580.487,654.029 590,653.025 C 595.775,652.415 603.425,651.492 607,650.973 C 621.469,648.873 654.515,645 657.961,645 C 659.711,645 659.149,649.708 655.464,665.932 C 653.519,674.494 651.044,685.550 649.963,690.500 C 642.400,725.146 640.615,733.201 637.444,747 C 635.485,755.525 633.096,766.324 632.137,770.997 C 630.841,777.308 629.957,779.577 628.697,779.820 C 627.764,780 627,779.721 627,779.201 C 627,778.006 602.147,745.681 588.018,728.500 C 582.138,721.350 572.642,709.744 566.914,702.709 C 552.038,684.436 545.237,676.173 539.250,669.099 C 533.922,662.803 533.287,661.558 534.901,660.561 Z" fill="#FFFFFF" stroke="none"/>
  <path id="79" d="M 662.577,242 C 663.898,235.675 665.631,227.575 666.428,224 C 667.225,220.425 668.813,212.550 669.959,206.500 C 673.902,185.674 682.952,140.452 687.969,116.500 C 690.734,103.300 692.997,91.262 692.998,89.750 C 692.999,88.202 693.547,87.013 694.250,87.029 C 694.938,87.045 699.325,90.470 704,94.639 C 708.675,98.809 719.250,107.865 727.500,114.766 C 746.627,130.765 757,140.558 757,142.616 C 757,143.508 754.580,148.122 751.622,152.869 C 738.608,173.753 732.590,183.588 726.644,193.694 C 715.911,211.936 697.616,242.454 686.111,261.307 C 677.473,275.462 674.876,279.125 673.747,278.749 C 672.505,278.335 660.033,256.141 660.121,254.500 C 660.150,253.950 661.256,248.325 662.577,242 Z" fill="#FFFFFF" stroke="none"/>
  <path id="79" d="M 728.740,483.874 C 762.701,450.225 778.681,434.761 780.615,433.677 C 782.260,432.755 790.567,439.403 812.853,459.474 C 820.197,466.088 827.653,472.625 829.422,474 C 837.036,479.920 862.028,503.416 861.714,504.359 C 861.327,505.519 858.980,507.163 836.784,521.815 C 831.576,525.253 826.366,528.691 821.158,532.129 C 818.215,531.615 815.272,531.101 812.329,530.587 C 807.473,529.739 796.525,527.938 788,526.584 C 735.436,518.237 702.401,512.680 701.740,512.075 C 701.322,511.692 713.472,499.002 728.740,483.874 Z" fill="#FFFFFF" stroke="none"/>
  <path id="79" d="M 585.375,455 C 594.263,437.215 634.941,357.308 637.168,353.258 C 638.451,350.925 639.800,349.013 640.168,349.008 C 640.954,348.998 642.469,353.599 652.018,385 C 660.209,411.937 668.188,437.793 678.245,470 C 682.109,482.375 686.094,495.358 687.100,498.851 C 688.106,502.344 689.201,506.057 689.532,507.101 C 689.929,508.350 689.655,509 688.731,509 C 687.959,509 665.876,500.450 639.657,490 C 613.438,479.550 591.736,471 591.429,471 C 591.122,471 588.649,470.045 585.935,468.877 C 582.829,467.541 581.023,466.151 581.063,465.127 C 581.098,464.232 583.039,459.675 585.375,455 Z" fill="#FFFFFF" stroke="none"/>
  <path id="79" d="M 839.312,161 C 843.103,161 865.225,169.669 880.500,177.141 C 907.872,190.530 924.389,202.175 943.362,221.459 C 980.926,259.640 998.984,303.559 1002.962,366.413 C 1004.185,385.732 1003.420,386.847 998.630,372.733 C 994.419,360.324 991.903,355.828 986.188,350.500 C 979.099,343.891 973.561,336.023 965.940,321.734 C 956.265,303.594 954.723,302.134 919.404,277.682 C 907.801,269.649 897.870,262.498 897.334,261.789 C 896.798,261.080 894.656,254.875 892.574,248 C 881.499,211.436 870.593,192.830 848.055,172.050 C 838.223,162.985 836.652,161 839.312,161 Z" fill="#FFFFFF" stroke="none"/>
  <path id="79" d="M 390.668,277.531 C 402.126,266.270 412.292,257.043 413.261,257.028 C 414.899,257.002 437.402,262.507 495,277.027 C 548.754,290.578 561.115,293.782 561.631,294.298 C 562.629,295.296 563.934,308.396 563.967,317.750 C 563.978,320.833 563.989,323.917 564,327 C 563.144,327 562.288,327 561.432,327 C 558.861,327 545.270,325.262 526.500,322.534 C 521,321.735 511.100,320.372 504.500,319.505 C 497.900,318.638 490.025,317.507 487,316.992 C 483.975,316.476 474.300,315.143 465.500,314.029 C 456.700,312.915 447.475,311.572 445,311.044 C 442.525,310.516 434.650,309.369 427.500,308.493 C 394.265,304.423 370.705,300.615 370.246,299.237 C 370.020,298.560 379.210,288.792 390.668,277.531 Z" fill="#FFFFFF" stroke="none"/>
  <path id="79" d="M 465.250,70.266 C 471.118,65.672 500.731,51.754 520,44.533 C 545.098,35.128 561.501,32.536 591,33.316 C 611.995,33.871 616.166,34.473 633.504,39.447 C 657.803,46.417 683.433,60.434 699.500,75.539 C 705.805,81.467 706.202,82.057 703.500,81.490 C 701.850,81.144 698.025,79.781 695,78.462 C 688.243,75.516 673.596,74.049 650,73.954 C 632.906,73.885 624.411,75.155 610.094,79.915 C 604.079,81.915 584.862,90.014 578.790,93.109 C 576.749,94.149 574.049,94.997 572.790,94.994 C 571.531,94.991 566,92.261 560.500,88.929 C 540.113,76.577 530.473,72.941 511.588,70.480 C 500.358,69.016 481.005,69.731 469.701,72.026 C 467.061,72.562 464.699,73 464.451,73 C 463.523,73 464.046,71.209 465.250,70.266 Z" fill="#FFFFFF" stroke="none"/>
  <path id="79" d="M 583.559,473.339 C 584.266,473.068 585.823,473.370 587.019,474.010 C 588.215,474.650 599.613,479.156 612.347,484.023 C 625.081,488.890 640.450,494.955 646.500,497.500 C 652.550,500.045 662.225,503.906 668,506.081 C 673.775,508.256 681.361,511.240 684.858,512.713 C 686.977,513.606 689.097,514.499 691.216,515.392 C 691.033,516.743 690.850,518.095 690.667,519.446 C 690.365,521.676 689,528 687.634,533.500 C 686.268,539 680.384,562.625 674.558,586 C 668.732,609.375 663.723,629.578 663.427,630.895 C 663.121,632.257 662.522,632.904 662.038,632.395 C 661.570,631.903 643.431,596.025 621.730,552.666 C 594.713,498.686 582.679,473.677 583.559,473.339 Z" fill="#FFFFFF" stroke="none"/>
  <path id="79" d="M 730.684,782.708 C 731.335,782.298 735.745,776.909 740.484,770.732 C 753.292,754.036 762.350,742.602 773.500,729.052 C 779,722.368 786.714,712.818 790.643,707.829 C 794.572,702.840 798.920,697.626 800.305,696.241 C 801.144,695.402 801.984,694.561 802.823,693.722 C 807.269,695.256 811.716,696.792 816.162,698.326 C 830.291,703.202 837.287,705.723 859,713.759 C 900.078,728.962 898.885,728.484 897.917,729.391 C 897.688,729.606 894.125,731.558 890,733.731 C 877.357,740.390 853.175,753.828 839.702,761.682 C 832.663,765.785 825.370,769.783 823.496,770.566 C 820.992,771.612 811.800,772.241 788.795,772.938 C 754.058,773.991 747.241,775.065 737.723,780.982 C 734.971,782.693 731.994,783.949 731.109,783.773 C 729.977,783.548 729.851,783.232 730.684,782.708 Z" fill="#FFFFFF" stroke="none"/>
  <path id="79" d="M 813.231,679.927 C 816.679,675.762 824,666.831 829.500,660.080 C 835,653.329 840.400,646.720 841.500,645.393 C 843.033,643.543 846.070,642.360 854.500,640.327 C 860.550,638.868 877.650,634.552 892.500,630.735 C 920.224,623.609 927,622.204 927,623.581 C 927,624.521 924.514,635.265 922.506,643 C 920.760,649.725 913.852,678.213 910.988,690.500 C 905.070,715.884 903.578,721.598 902.584,722.672 C 901.758,723.566 900.430,723.483 897,722.324 C 887.153,718.996 860.353,709.427 839.500,701.795 C 827.400,697.366 815.250,692.937 812.500,691.952 C 809.750,690.967 807.379,689.563 807.231,688.831 C 807.083,688.099 809.783,684.092 813.231,679.927 Z" fill="#FFFFFF" stroke="none"/>
  <path id="79" d="M 401.156,571 C 401.792,571 403.927,572.237 405.902,573.750 C 407.877,575.263 410.844,577.432 412.496,578.571 C 414.148,579.710 420.675,584.401 427,588.996 C 433.325,593.591 445.250,602.145 453.500,608.003 C 468.434,618.608 497.507,639.499 512.842,650.646 C 517.271,653.865 520.919,656.847 520.948,657.271 C 521.028,658.445 518.451,659.315 492,667.038 C 478.525,670.973 460.300,676.454 451.500,679.220 C 425.621,687.354 425.885,687.285 424.832,686.232 C 424.296,685.696 422.787,679.912 421.478,673.379 C 417.751,654.769 406.379,600.912 403.031,586.015 C 399.569,570.610 399.618,571 401.156,571 Z" fill="#FFFFFF" stroke="none"/>
  <path id="79" d="M 351.543,611.029 C 380.697,582.015 393.401,570.001 394.142,570.742 C 395.117,571.717 402.669,603.481 406.923,624.500 C 419.394,686.118 419.148,684.791 418.217,685.362 C 417.513,685.794 396.164,679.766 358.500,668.502 C 348.050,665.377 333.320,661.092 325.768,658.980 C 311.641,655.030 310,654.421 310,653.127 C 310,652.712 328.694,633.768 351.543,611.029 Z" fill="#FFFFFF" stroke="none"/>
  <path id="79" d="M 771.250,571.245 C 771.938,570.695 783.725,562.716 797.446,553.514 C 825.485,534.709 821.328,536.204 838,538.932 C 841.575,539.517 849,540.666 854.500,541.486 C 879.488,545.210 884.590,546.158 886.480,547.429 C 887.591,548.176 892.495,555.923 897.377,564.644 C 902.259,573.365 910.525,587.833 915.746,596.797 C 920.967,605.761 924.981,613.353 924.666,613.668 C 924.351,613.983 916.309,612.113 906.796,609.513 C 897.283,606.913 880.050,602.339 868.500,599.349 C 856.950,596.359 840.075,591.932 831,589.510 C 821.925,587.088 809.100,583.709 802.500,582.001 C 795.900,580.293 788.475,578.273 786,577.512 C 783.525,576.751 778.912,575.619 775.750,574.994 C 769.930,573.845 768.985,573.057 771.250,571.245 Z" fill="#FFFFFF" stroke="none"/>
  <path id="79" d="M 141.022,530.141 C 144.745,528.602 235.340,499.385 276.291,486.517 C 284.426,483.961 291.691,482.010 292.438,482.184 C 293.831,482.508 283.032,502.901 259.438,544.500 C 253.199,555.500 247.419,565.737 246.594,567.250 C 244.227,571.588 248.289,572.764 195,552.309 C 169.456,542.504 158.069,538.315 149.360,535.517 C 145.433,534.255 141.393,532.760 140.382,532.194 C 138.675,531.239 138.721,531.092 141.022,530.141 Z" fill="#FFFFFF" stroke="none"/>
  <path id="79" d="M 157.643,568 C 157.997,568 163.734,572.366 170.393,577.702 C 189.221,592.790 189.660,593.117 204.500,603.193 C 225.268,617.293 267.894,640.964 294.119,652.959 C 298.179,654.816 304.650,658.308 308.500,660.719 C 324.778,670.913 353.053,683.118 369.044,686.854 C 390.891,691.958 397.675,693.073 411.500,693.837 C 418.329,694.214 423.500,694.928 423.500,695.493 C 423.500,698.156 379.811,702.698 364.587,701.618 C 337.299,699.682 320.578,696.340 297.500,688.211 C 275.841,680.582 254.234,668.879 234.721,654.207 C 216.060,640.176 182.944,606.037 169,586.457 C 167.075,583.754 163.587,578.866 161.250,575.594 C 157.158,569.866 156.272,568 157.643,568 Z" fill="#FFFFFF" stroke="none"/>
  <path id="79" d="M 835.838,373.500 C 837.379,370.750 844.724,357.475 852.161,344 C 859.598,330.525 871.010,310.050 877.521,298.500 C 884.032,286.950 890.214,275.759 891.260,273.631 C 892.306,271.503 893.497,270.153 893.906,270.631 C 894.315,271.109 896.145,276.225 897.973,282 C 899.801,287.775 901.865,293.625 902.560,295 C 903.255,296.375 905.379,300.875 907.280,305 C 909.181,309.125 913.397,315.650 916.648,319.500 C 924.933,329.311 933.139,333.177 966.928,343.188 C 972.657,344.885 973.232,346.694 968.314,347.548 C 966.216,347.912 951,351.573 934.500,355.682 C 918,359.791 902.700,363.537 900.500,364.006 C 895.294,365.116 841.460,378.632 837.325,379.868 C 832.162,381.411 831.939,380.458 835.838,373.500 Z" fill="#FFFFFF" stroke="none"/>
  <path id="79" d="M 891.408,750.073 C 898.017,745.513 911.048,732.141 915.680,725.166 C 921.174,716.892 927.681,703.126 929.925,695.029 C 934.309,679.208 935.311,668.126 934.694,642.284 C 934.501,634.212 934.308,626.139 934.115,618.067 C 938.709,613.909 943.302,609.752 947.896,605.594 C 962.571,592.312 984.504,570.004 989.103,563.683 C 991.857,559.897 995.203,550.565 1000.573,531.697 C 1002.107,526.305 1003.761,521.647 1004.249,521.346 C 1005.241,520.733 1004.425,537.095 1002.995,546.500 C 1002.493,549.800 1001.816,555.200 1001.490,558.500 C 998.824,585.486 988.413,627.953 978.324,653 C 961.691,694.292 931.250,731.003 898.275,749.534 C 888.557,754.995 883.724,755.375 891.408,750.073 Z" fill="#FFFFFF" stroke="none"/>
  <path id="79" d="M 633.715,785 C 633.945,783.625 635.482,776.875 637.131,770 C 638.780,763.125 641.466,750.975 643.100,743 C 644.734,735.025 647.134,724 648.433,718.500 C 653.092,698.782 655.871,686.320 658.079,675.250 C 661.278,659.214 662.960,660.498 662.990,679 C 662.999,684.775 663.444,696.475 663.979,705 C 664.514,713.525 665.407,729.500 665.965,740.500 C 666.523,751.500 667.430,767.925 667.982,777 C 669.402,800.365 671.829,846.483 673.060,873.500 C 673.636,886.150 674.507,901.225 674.997,907 C 676.159,920.704 676.221,932 675.135,932 C 673.982,932 667.625,916.867 658.961,893.500 C 656.165,885.960 653.201,875.050 652.577,870 C 648.498,837.003 644.170,816.854 637.542,800 C 633.581,789.927 633.164,788.295 633.715,785 Z" fill="#FFFFFF" stroke="none"/>
  <path id="79" d="M 305.195,466.500 C 305.765,464.850 308.394,457.650 311.036,450.500 C 313.678,443.350 321.061,422.875 327.444,405 C 333.827,387.125 341.937,364.625 345.467,355 C 348.997,345.375 353.700,332.373 355.919,326.107 C 358.138,319.841 360.189,314.478 360.477,314.190 C 361.631,313.036 362.095,315.200 363.039,326.110 C 364.035,337.629 367.762,371.475 370.460,393.500 C 371.268,400.100 372.679,414.239 373.594,424.919 C 375.196,443.607 375.190,444.388 373.438,445.669 C 372.437,446.401 371.050,447 370.356,447 C 368.634,447 326.340,463.262 312.728,469.158 C 304.210,472.847 303.132,472.467 305.195,466.500 Z" fill="#FFFFFF" stroke="none"/>
  <path id="79" d="M 670.996,619 C 672.536,613.225 674.732,604.450 675.876,599.500 C 683.690,565.686 695.567,520 696.543,520 C 697.678,520 722.156,541.018 745.687,562.198 C 752.390,568.231 757.668,573.702 757.417,574.356 C 757.017,575.398 742.263,585.764 730.881,593 C 728.718,594.375 714.133,604.162 698.469,614.750 C 682.806,625.338 669.542,634 668.995,634 C 667.468,634 667.941,630.453 670.996,619 Z" fill="#FFFFFF" stroke="none"/>
  <path id="79" d="M 315.699,472.961 C 329.834,467.425 355.355,457.652 365.741,453.798 C 375.036,450.349 376.998,450.797 377.002,456.372 C 377.003,458.092 377.925,465.800 379.051,473.500 C 380.177,481.200 381.963,494.025 383.021,502 C 386.042,524.774 388.895,543.184 389.993,546.993 C 391.095,550.815 391.340,556 390.419,556 C 389.835,556 374.369,541.947 338.139,508.500 C 327.415,498.600 315.718,488.025 312.146,485 C 308.574,481.975 305.481,478.981 305.274,478.346 C 305.054,477.672 309.395,475.430 315.699,472.961 Z" fill="#FFFFFF" stroke="none"/>
  <path id="79" d="M 82.657,286 C 86.033,275.856 96.383,252.955 101.864,243.500 C 123.958,205.390 151.080,176.278 185.461,153.771 C 213.278,135.561 245.317,122.167 279.500,114.455 C 283.350,113.586 287.882,112.454 289.571,111.938 C 293.493,110.741 297,110.735 297,111.927 C 297,112.437 294.413,114.327 291.250,116.127 C 277.953,123.697 264.279,135.508 250.012,151.750 C 245.543,156.837 241.182,161 240.322,161 C 237.795,161 213.959,166.778 207.933,168.851 C 192.134,174.287 168.326,188.640 154.245,201.217 C 142.820,211.422 125.107,229.168 119.527,236 C 110.484,247.071 96.964,266.955 90.118,279.250 C 86.520,285.712 83.221,291 82.788,291 C 81.930,291 81.862,288.389 82.657,286 Z" fill="#FFFFFF" stroke="none"/>
  <path id="79" d="M 140.250,537.006 C 141.597,537.013 160.489,543.987 197,557.954 C 204.425,560.794 217.700,565.806 226.500,569.092 C 235.300,572.378 242.983,575.389 243.573,575.783 C 246.439,577.698 295.385,646.948 294.499,647.834 C 293.970,648.363 261.428,631.863 244.500,622.482 C 206.410,601.373 164.910,570.586 149.686,552.144 C 143.045,544.099 139,538.593 139,537.596 C 139,537.268 139.562,537.002 140.250,537.006 Z" fill="#FFFFFF" stroke="none"/>
  <path id="79" d="M 28.990,401.500 C 30.695,389.557 40.860,364.222 47.446,355.500 C 48.692,353.850 50.644,350.670 51.783,348.433 C 53.834,344.406 56.643,341.309 57.484,342.150 C 57.723,342.389 56.738,346.167 55.294,350.543 C 53.129,357.107 52.684,360.250 52.750,368.500 C 52.849,380.853 56.442,398.430 62.220,414.827 C 66.167,426.029 66.360,427.145 67.009,442.500 C 67.634,457.288 67.957,459.308 71.288,469.171 C 75.857,482.701 79.467,489.829 86.446,499.107 C 89.504,503.172 91.556,506.648 91.006,506.831 C 90.456,507.014 84.942,503.327 78.753,498.638 C 66.491,489.347 52.052,475.394 46.532,467.500 C 42.193,461.295 33.889,444.510 31.194,436.499 C 28.836,429.488 27.660,410.816 28.990,401.500 Z" fill="#FFFFFF" stroke="none"/>
  <path id="79" d="M 774.750,579.015 C 775.162,579.023 779.100,580.150 783.500,581.520 C 787.900,582.890 796.225,585.143 802,586.527 C 811.382,588.775 854.631,600.102 878.500,606.561 C 883.450,607.900 894.700,610.923 903.500,613.278 C 912.300,615.633 919.500,617.956 919.500,618.441 C 919.500,619.306 900.735,624.550 880,629.479 C 874.225,630.852 864.550,633.360 858.500,635.054 C 840.416,640.116 842.768,640.550 830.296,629.848 C 804.608,607.807 774,580.618 774,579.841 C 774,579.378 774.338,579.007 774.750,579.015 Z" fill="#FFFFFF" stroke="none"/>
  <path id="79" d="M 573.120,371.324 C 575.734,369.171 632.502,347.209 633.723,347.879 C 634.679,348.404 634.661,349.089 633.641,351.025 C 629.326,359.211 614.397,388.175 602.728,411 C 581.313,452.890 579.476,456.341 578.420,456.693 C 577.479,457.007 576.248,442.383 573.987,404 C 573.517,396.025 572.820,385.666 572.437,380.980 C 571.891,374.301 572.038,372.215 573.120,371.324 Z" fill="#FFFFFF" stroke="none"/>
  <path id="79" d="M 897.250,548.264 C 899.037,548.530 906.125,549.708 913,550.883 C 919.875,552.057 929.775,553.706 935,554.547 C 940.225,555.388 951.700,557.410 960.500,559.042 C 969.300,560.674 977.737,562.008 979.250,562.005 C 981.434,562.001 982,562.461 982,564.244 C 982,567.962 935.290,613 931.433,613 C 930.739,613 928.502,609.963 926.461,606.250 C 924.420,602.537 921.525,597.475 920.028,595 C 918.531,592.525 913.807,584.425 909.531,577 C 905.255,569.575 900.011,560.548 897.878,556.940 C 893.062,548.793 892.978,547.629 897.250,548.264 Z" fill="#FFFFFF" stroke="none"/>
  <path id="79" d="M 705,518 C 705.550,518 714.212,519.367 724.250,521.038 C 744.032,524.331 768.356,528.277 779.500,530.001 C 783.350,530.597 788.975,531.484 792,531.971 C 795.025,532.458 800.866,533.352 804.979,533.957 C 809.092,534.562 812.848,535.448 813.325,535.925 C 813.815,536.415 812.299,538.181 809.846,539.981 C 800.661,546.721 764.492,570 763.205,570 C 761.658,570 758.117,567.048 726.742,539.615 C 714.234,528.678 704,519.341 704,518.865 C 704,518.389 704.450,518 705,518 Z" fill="#FFFFFF" stroke="none"/>
  <path id="79" d="M 321.649,234 C 322.556,234 339.318,238.033 358.899,242.962 C 403.344,254.151 404.898,254.565 405.761,255.428 C 406.150,255.817 396.907,265.604 385.221,277.179 C 366.857,295.369 363.763,298.048 362.411,296.926 C 361.551,296.212 357.485,290.649 353.376,284.564 C 349.267,278.479 340.077,264.989 332.953,254.587 C 325.829,244.185 320,235.297 320,234.837 C 320,234.377 320.742,234 321.649,234 Z" fill="#FFFFFF" stroke="none"/>
  <path id="79" d="M 646.825,335.874 C 647.746,334.578 653.900,324.325 660.500,313.088 C 667.100,301.851 673.026,292.484 673.669,292.272 C 675.140,291.788 679.958,299.906 696.950,331.500 C 698.429,334.250 704.007,344.513 709.344,354.307 C 714.681,364.101 718.806,372.505 718.511,372.982 C 718.216,373.459 712.693,371.352 706.237,368.301 C 699.781,365.250 687.975,359.853 680,356.309 C 655.973,345.631 646.145,340.821 645.635,339.492 C 645.369,338.798 645.904,337.170 646.825,335.874 Z" fill="#FFFFFF" stroke="none"/>
  <path id="79" d="M 84.247,299 C 111.448,247.962 140.290,214.114 177.500,189.559 C 190.844,180.753 190.152,181.115 202.500,176.495 C 214.829,171.882 232.851,166.948 233.505,168.007 C 234.162,169.070 231.569,171.829 225,177.056 C 221.975,179.463 214.388,185.722 208.140,190.966 C 201.892,196.210 195.312,201.625 193.518,203 C 191.724,204.375 178.869,214.702 164.950,225.948 C 141.853,244.610 127.008,258.120 114.898,271.500 C 112.409,274.250 105.451,281.911 99.436,288.525 C 93.421,295.139 86.603,302.789 84.285,305.525 C 78.802,311.996 78.786,309.247 84.247,299 Z" fill="#FFFFFF" stroke="none"/>
  <path id="79" d="M 530.904,668.560 C 531.428,668.236 534.251,670.741 537.178,674.126 C 552.954,692.371 556.619,696.704 567.521,710 C 586.935,733.676 595.139,743.932 603.121,754.500 C 619.346,775.982 621.770,779.504 620.536,779.796 C 617.085,780.613 579.984,754.532 564.498,740.403 C 555.777,732.446 544.630,718.972 540.173,711 C 536.005,703.544 532.168,691.841 531.494,684.529 C 531.188,681.213 530.715,676.396 530.444,673.824 C 530.173,671.252 530.380,668.884 530.904,668.560 Z" fill="#FFFFFF" stroke="none"/>
  <path id="79" d="M 249.799,171 C 251.361,171 307.500,226.333 307.500,227.873 C 307.500,229.781 263.196,247.596 261.836,246.236 C 261.360,245.760 259.628,237.525 257.986,227.935 C 256.344,218.345 253.651,202.625 252.002,193 C 248.852,174.617 248.490,171 249.799,171 Z" fill="#FFFFFF" stroke="none"/>
  <path id="79" d="M 736.250,382.002 C 740.627,382.005 792.675,385.050 804.895,386.018 C 811.712,386.558 817.675,387 818.145,387 C 818.615,387 819,387.576 819,388.281 C 819,389.753 783.527,424.346 781.553,424.799 C 780.835,424.964 776.255,421.618 771.374,417.364 C 755.446,403.480 734,383.657 734,382.819 C 734,382.368 735.013,382.001 736.250,382.002 Z" fill="#FFFFFF" stroke="none"/>
  <path id="79" d="M 900.650,271 C 902.678,271 936.639,294.289 946.133,302.190 C 949.244,304.779 953.254,309.058 955.044,311.699 C 959.883,318.837 969.326,337.008 968.583,337.751 C 967.878,338.456 966.311,338.048 948.533,332.532 C 930.272,326.867 924.728,323.607 918.109,314.647 C 912.968,307.688 909.790,301.250 904.449,286.972 C 900.274,275.811 899.130,271 900.650,271 Z" fill="#FFFFFF" stroke="none"/>
  <path id="79" d="M 72.775,440 C 73.201,440 75.958,443.938 78.902,448.750 C 85.222,459.083 101.403,486.156 108.040,497.500 C 110.614,501.900 115.050,509.271 117.896,513.881 C 120.742,518.491 122.799,522.534 122.468,522.865 C 121.234,524.099 104.495,513.429 99.254,508.066 C 94.913,503.624 88.086,494.710 85.225,489.745 C 81.406,483.119 76.072,469.730 74.007,461.590 C 72.038,453.829 71.249,440 72.775,440 Z" fill="#FFFFFF" stroke="none"/>
  <path id="79" d="M 571.790,334.005 C 572.731,334.008 579.575,334.907 587,336.001 C 613.579,339.919 628.500,342.620 628.500,343.517 C 628.500,344.018 626.250,345.153 623.500,346.038 C 620.750,346.923 617.150,348.199 615.500,348.874 C 611.103,350.674 601.734,354.346 591.500,358.281 C 586.550,360.184 580.335,362.763 577.689,364.010 C 574.945,365.303 572.529,365.896 572.066,365.389 C 571.620,364.900 570.990,357.638 570.667,349.250 C 570.130,335.298 570.225,334 571.790,334.005 Z" fill="#FFFFFF" stroke="none"/>
  <path id="79" d="M 567.559,297.774 C 568.545,296.788 572.373,298.944 586.287,308.318 C 593.004,312.843 605.367,321.009 613.759,326.464 C 628.276,335.900 631.440,339.134 624.097,337.028 C 622.270,336.504 617.564,335.621 613.638,335.067 C 589.548,331.665 572.623,328.869 571.061,328.033 C 569.561,327.230 569.148,325.192 568.579,315.785 C 568.204,309.578 567.665,303.143 567.381,301.484 C 567.097,299.825 567.177,298.156 567.559,297.774 Z" fill="#FFFFFF" stroke="none"/>
  <path id="79" d="M 525.560,685.742 C 525.995,685.325 527.166,688.250 528.163,692.242 C 533.844,714.992 550.420,735.856 582.410,760.523 C 587.310,764.302 590.824,767.559 590.218,767.761 C 589.058,768.148 574.061,759.787 565.158,753.792 C 550.992,744.252 535.946,727.275 529.262,713.290 C 526.275,707.040 525.746,704.775 525.292,696.290 C 525.004,690.906 525.125,686.159 525.560,685.742 Z" fill="#FFFFFF" stroke="none"/>
  <path id="79" d="M 265.704,141.303 C 275.983,130.895 285.178,124.076 298.463,117.011 C 307.344,112.288 312.648,110.444 321.500,109.005 C 324.800,108.468 329.750,107.538 332.500,106.938 C 337.339,105.881 357.910,103.416 370.801,102.347 C 377.845,101.763 381.593,102.520 378.964,103.997 C 378.119,104.472 375.644,105.107 373.464,105.408 C 371.284,105.709 365.225,106.659 360,107.519 C 354.775,108.379 347.653,109.537 344.173,110.093 C 325.773,113.034 320.333,115.181 299.899,127.572 C 273.021,143.870 256.554,153.109 256.204,152.087 C 256.041,151.612 260.316,146.759 265.704,141.303 Z" fill="#FFFFFF" stroke="none"/>
  <path id="79" d="M 682.729,960.469 C 690.538,961.375 694.726,959.327 702.392,950.856 C 705.798,947.092 708.379,944.998 708.916,945.564 C 710.853,947.606 704.584,981.862 700.733,990.273 C 697.659,996.988 695.051,997.750 690.698,993.206 C 687.436,989.802 677.953,968.981 677.229,963.635 C 677.055,962.347 676.880,961.057 676.706,959.769 C 678.714,960.002 680.721,960.236 682.729,960.469 Z" fill="#FFFFFF" stroke="none"/>
  <path id="79" d="M 847.515,520.109 C 856.598,514.040 864.586,509.293 865.265,509.560 C 865.944,509.827 869.200,515.080 872.500,521.232 C 875.800,527.384 879.513,533.920 880.750,535.754 C 884.018,540.598 883.698,541.372 878.750,540.598 C 876.412,540.232 871.800,539.523 868.500,539.021 C 865.200,538.519 860.025,537.646 857,537.081 C 853.975,536.516 847.900,535.572 843.500,534.982 C 832.812,533.550 831,533.125 831,532.053 C 831,531.553 838.432,526.178 847.515,520.109 Z" fill="#FFFFFF" stroke="none"/>
  <path id="79" d="M 666.363,924.886 C 667.263,925.633 668,926.701 668,927.259 C 668,927.817 670.526,933.410 673.614,939.688 C 677.173,946.924 679.726,950.992 680.590,950.801 C 682.309,950.421 692.573,937.865 703.111,923.250 C 707.572,917.062 711.676,912 712.230,912 C 712.883,912 712.987,915.072 712.524,920.750 C 711.718,930.644 709.726,935.216 702.089,944.695 C 696.367,951.798 689.666,957 686.238,957 C 681.656,957 675.533,953.293 673.171,949.090 C 670.548,944.423 666.075,931.896 665.288,927.014 C 664.782,923.872 664.887,923.661 666.363,924.886 Z" fill="#FFFFFF" stroke="none"/>
  <path id="79" d="M 910.131,713.500 C 911.180,709.650 914.733,694.800 918.027,680.500 C 924.227,653.580 927.838,639.122 928.732,637.643 C 931.058,633.794 931.957,661.246 929.871,672.440 C 925.853,694.004 920.290,709.750 912.595,721.335 C 911.230,723.390 909.865,725.445 908.500,727.500 C 908.454,726.333 908.408,725.167 908.362,724 C 908.286,722.075 909.082,717.350 910.131,713.500 Z" fill="#FFFFFF" stroke="none"/>
  <path id="79" d="M 650.506,304.500 C 656.480,275.852 659.011,264.500 659.425,264.500 C 659.648,264.500 662.394,269.183 665.526,274.907 C 667.424,278.376 669.323,281.845 671.221,285.314 C 670.657,286.512 670.094,287.709 669.530,288.907 C 668.600,290.883 664.898,297.450 661.304,303.500 C 657.710,309.550 653.376,316.862 651.673,319.750 C 645.981,329.402 645.802,327.056 650.506,304.500 Z" fill="#FFFFFF" stroke="none"/>
  <path id="79" d="M 743.204,795.546 C 757.830,794.736 775.051,790.485 791.995,783.502 C 802.580,779.139 810.620,777.641 809.771,780.188 C 809.268,781.697 795.593,790.307 786.721,794.700 C 776.590,799.717 769.240,801.286 756,801.262 C 744.377,801.240 731.912,799.237 731.262,797.287 C 731.033,796.601 735.253,795.986 743.204,795.546 Z" fill="#FFFFFF" stroke="none"/>
  <path id="79" d="M 835.879,167 C 837.709,167 862.880,192.743 866.189,198 C 868.093,201.025 871.691,207.550 874.185,212.500 C 886.810,237.563 890.556,254.946 879.195,235.750 C 872.683,224.748 843.271,179.682 838.658,173.639 C 835,168.847 834.227,167 835.879,167 Z" fill="#FFFFFF" stroke="none"/>
  <path id="79" d="M 57.974,356.500 C 59.258,350.560 64.574,336.642 65.702,336.266 C 67.590,335.637 68.916,406.802 67.102,411.434 C 66.084,414.034 65.531,412.899 62.975,402.971 C 58.185,384.366 56.112,365.110 57.974,356.500 Z" fill="#FFFFFF" stroke="none"/>
  <path id="79" d="M 720.749,852.250 C 721.084,819.947 721.691,818.251 725.844,838 C 728.602,851.118 731.751,867.691 732.415,872.579 C 732.872,875.949 732.466,877.426 730.076,881.079 C 722.563,892.560 719.834,893.561 720.233,884.691 C 720.361,881.836 720.593,867.237 720.749,852.250 Z" fill="#FFFFFF" stroke="none"/>
  <path id="79" d="M 440.094,88.382 C 448.663,81.570 465.112,76.424 481.500,75.427 C 511.845,73.582 525.350,75.603 543.165,84.660 C 552.119,89.212 553.987,90.504 552.054,90.807 C 550.709,91.018 546.884,90.488 543.554,89.629 C 532.772,86.848 515.779,82.937 503.740,80.466 C 490.085,77.663 483.736,78.044 468.500,82.585 C 445.527,89.432 436.442,91.286 440.094,88.382 Z" fill="#FFFFFF" stroke="none"/>
  <path id="79" d="M 843.593,764.501 C 845.192,763.629 852.015,759.793 858.755,755.977 C 865.495,752.161 874.495,747.179 878.755,744.907 C 883.015,742.635 889.962,738.926 894.194,736.665 C 898.426,734.404 902.201,732.868 902.583,733.250 C 903.264,733.931 897.810,739.206 888.287,747.075 C 882.091,752.195 857.341,764.492 849.113,766.538 C 841.761,768.366 838.627,767.210 843.593,764.501 Z" fill="#FFFFFF" stroke="none"/>
  <path id="79" d="M 325.032,663 C 325.600,663 327.556,663.623 329.379,664.385 C 331.202,665.147 335.800,666.480 339.597,667.347 C 343.394,668.214 349.200,669.851 352.500,670.984 C 355.800,672.117 363.900,674.594 370.500,676.487 C 392.802,682.884 404.934,686.825 406.450,688.162 C 408.174,689.683 398.376,689.037 388.347,686.969 C 382.931,685.852 376.025,684.468 373,683.892 C 357.352,680.914 316.222,663 325.032,663 Z" fill="#FFFFFF" stroke="none"/>
  <path id="79" d="M 725.371,811 C 726.587,811 738.039,835.700 739.494,841.460 C 742.033,851.510 740.775,866.575 737.300,867.733 C 736.048,868.150 736.089,868.315 731.986,846.500 C 730.227,837.150 728.109,826.575 727.277,823 C 725.126,813.754 724.688,811 725.371,811 Z" fill="#FFFFFF" stroke="none"/>
  <path id="83" d="M 439.138,687.616 C 440.407,686.727 442.236,686 443.202,686 C 444.168,686 446.656,685.362 448.730,684.583 C 452.554,683.146 459.861,680.884 481.500,674.439 C 488.100,672.473 494.496,670.462 495.714,669.970 C 498.273,668.936 499.610,670.249 497.652,671.874 C 496.030,673.220 472.310,682.232 461.951,685.438 C 443.638,691.105 432.660,692.153 439.138,687.616 Z" fill="#EFEFEF" stroke="none"/>
  <path id="83" d="M 983.636,356.698 C 985.076,355.258 986.146,356.158 989.903,361.971 C 992.041,365.279 994.543,370.966 995.513,374.721 C 996.476,378.449 998.160,384.573 999.254,388.329 C 1000.671,393.193 1000.934,395.466 1000.169,396.231 C 999.404,396.996 998.807,396.613 998.092,394.902 C 997.540,393.581 994.119,385.075 990.490,376 C 986.861,366.925 983.678,359.027 983.415,358.448 C 983.152,357.869 983.252,357.082 983.636,356.698 Z" fill="#EFEFEF" stroke="none"/>
  <path id="83" d="M 739.859,788.587 C 741.168,787.778 758.656,784.037 768.500,782.460 C 772.900,781.755 778.130,780.864 780.123,780.479 C 785.133,779.512 786.209,781.597 781.677,783.491 C 774.239,786.599 745.423,792.615 741.561,791.867 C 739.419,791.452 738.400,789.488 739.859,788.587 Z" fill="#EFEFEF" stroke="none"/>
  <path id="83" d="M 706.403,88.399 C 708.559,87.572 715.450,91.521 721.655,97.140 C 730.543,105.189 741.067,117.333 740.042,118.358 C 739.101,119.299 723.128,107.017 717.500,101.025 C 715.850,99.268 712.362,96.255 709.750,94.330 C 704.808,90.688 704.030,89.310 706.403,88.399 Z" fill="#EFEFEF" stroke="none"/>
  <path id="83" d="M 744.750,780.689 C 745.162,780.453 748.989,779.495 753.254,778.561 C 761.120,776.838 765.500,776.776 765.500,778.389 C 765.500,779.857 746.596,784.486 744.895,783.435 C 743.805,782.762 743.727,781.274 744.750,780.689 Z" fill="#EFEFEF" stroke="none"/>
  <path id="79" d="M 632.095,815.198 C 633.273,815.591 634.149,818.594 638.454,837 C 639.162,840.025 639.417,842.861 639.020,843.301 C 638.095,844.328 633.433,830.047 632.556,823.500 C 632.188,820.750 631.639,817.660 631.338,816.632 C 630.971,815.381 631.221,814.907 632.095,815.198 Z" fill="#FFFFFF" stroke="none"/>
  <path id="79" d="M 720.029,900.500 C 721.519,897.195 725.857,892.524 726.676,893.343 C 727.918,894.585 722.516,908.456 720.648,908.823 C 719.374,909.073 719.014,908.392 719.063,905.823 C 719.098,903.995 719.533,901.600 720.029,900.500 Z" fill="#FFFFFF" stroke="none"/>
  <path id="79" d="M 803.504,151.360 C 804.401,151.016 805.644,151.244 806.267,151.867 C 806.890,152.490 808.491,153 809.825,153 C 813.156,153 824.288,158.112 823.240,159.160 C 822.205,160.195 812.110,157.348 809.921,155.403 C 809.053,154.632 807.167,154 805.730,154 C 802.643,154 801.172,152.255 803.504,151.360 Z" fill="#FFFFFF" stroke="none"/>
</svg>